<svg width="22" height="22" version="1" xmlns="http://www.w3.org/2000/svg">
 <defs>
  <style id="current-color-scheme" type="text/css">.ColorScheme-Text { color:#dedede; } .ColorScheme-Highlight { color:#5294e2; } .ColorScheme-ButtonBackground { color:#dedede; }</style>
 </defs>
 <g id="16-16-kate" transform="translate(-527.84 41.28)">
  <rect x="505" y="-39.01" width="16" height="16" fill="none"/>
  <path class="ColorScheme-Text" d="m505.99-27.119v3.12h3.12l7.88-7.88-3.12-3.12zm13.76-7.51c0.33-0.33 0.33-0.85 0-1.18l-1.95-1.95c-0.33-0.33-0.85-0.33-1.18 0l-1.63 1.64 3.12 3.12z" fill="currentColor"/>
 </g>
 <g id="22-22-kate">
  <rect width="22" height="22" fill="none"/>
  <path class="ColorScheme-Text" d="m3.99 14.888v3.12h3.12l7.88-7.88-3.12-3.12zm13.76-7.51c0.33-0.33 0.33-0.85 0-1.18l-1.95-1.95c-0.33-0.33-0.85-0.33-1.18 0l-1.63 1.64 3.12 3.12z" fill="currentColor"/>
 </g>
</svg>
