<?xml version="1.0" encoding="UTF-8" standalone="no"?>
<svg
   width="22"
   height="22"
   version="1.1"
   id="svg21"
   sodipodi:docname="pamac.svg"
   inkscape:version="1.1.1 (3bf5ae0d25, 2021-09-20, custom)"
   xmlns:inkscape="http://www.inkscape.org/namespaces/inkscape"
   xmlns:sodipodi="http://sodipodi.sourceforge.net/DTD/sodipodi-0.dtd"
   xmlns="http://www.w3.org/2000/svg"
   xmlns:svg="http://www.w3.org/2000/svg">
  <sodipodi:namedview
     id="namedview23"
     pagecolor="#3d3d3d"
     bordercolor="#666666"
     borderopacity="1.0"
     inkscape:pageshadow="2"
     inkscape:pageopacity="0"
     inkscape:pagecheckerboard="0"
     showgrid="false"
     inkscape:snap-bbox="true"
     inkscape:bbox-nodes="true"
     inkscape:snap-bbox-edge-midpoints="false"
     inkscape:snap-nodes="false"
     inkscape:zoom="4.0681818"
     inkscape:cx="-0.98324023"
     inkscape:cy="34.536313"
     inkscape:window-width="1920"
     inkscape:window-height="1001"
     inkscape:window-x="0"
     inkscape:window-y="0"
     inkscape:window-maximized="1"
     inkscape:current-layer="svg21">
    <inkscape:grid
       type="xygrid"
       id="grid1777" />
  </sodipodi:namedview>
  <defs
     id="defs3">
    <style
       id="current-color-scheme"
       type="text/css">.ColorScheme-Text{color:#dfdfdf;}.ColorScheme-Highlight{color:#5294e2;}</style>
  </defs>
  <defs
     id="defs7">
    <style
       type="text/css"
       id="style5" />
  </defs>
  <g
     id="pamac-tray-no-update">
    <rect
       style="fill:none;fill-opacity:1;stroke:none;stroke-width:2.11786;stroke-linecap:round;stroke-linejoin:round;stroke-miterlimit:4;stroke-dasharray:none;stroke-opacity:1;paint-order:stroke fill markers;stop-color:#000000"
       id="rect1079"
       width="32"
       height="32"
       x="-0.97726023"
       y="30.050793"
       rx="0"
       ry="0" />
    <path
       d="m 14.246093,34.40625 a 1.0001,1.0001 0 0 0 0,0.002 L 6.5234375,37.121141 C 5.6143253,37.44017 5,38.306533 5,39.269578 v 7.941406 c 0,2.464839 0.8983919,4.81817 2.4804688,6.640625 0.8235126,0.950002 1.8350363,1.657175 2.8710932,2.216797 l 4.181641,2.25586 a 1.0001,1.0001 0 0 0 0.949218,0 l 4.173829,-2.253907 a 1.0001,1.0001 0 0 0 0.002,0 c 1.035482,-0.559994 2.04336,-1.268483 2.865234,-2.216796 1.582015,-1.822898 2.476563,-4.175705 2.476563,-6.638672 v -7.945313 c 0,-0.963588 -0.613481,-1.829847 -1.523438,-2.148437 L 15.75586,34.408203 c -0.488859,-0.172056 -1.02127,-0.173147 -1.509766,-0.002 z m 0.66211,1.888672 c 0.06051,-0.02121 0.125791,-0.02034 0.183594,0 l 7.722656,2.71289 C 22.929779,39.048192 23,39.146835 23,39.269531 v 7.945313 c 0,1.978376 -0.717722,3.866356 -1.986329,5.328125 a 1.0001,1.0001 0 0 0 -0.002,0 c -0.611652,0.70575 -1.4159,1.285861 -2.30664,1.767578 l -3.697266,1.998047 -3.705078,-2 h -0.002 C 10.408841,53.826662 9.6042154,53.249003 8.9921875,52.542969 a 1.0001,1.0001 0 0 0 0,-0.002 C 7.7223979,51.079087 7,49.191209 7,47.210937 V 39.269531 C 7,39.146835 7.070219,39.04819 7.1855469,39.007812 a 1.0001,1.0001 0 0 0 0.00195,0 z"
       id="path1055"
       class="ColorScheme-Text"
       fill="currentColor" />
    <path
       id="rect1801"
       d="M 15 41 C 14.744835 41 14.488701 41.097795 14.292969 41.292969 C 14.292621 41.293316 14.291363 41.292621 14.291016 41.292969 L 11.462891 44.123047 C 11.071153 44.514784 11.071153 45.145372 11.462891 45.537109 C 11.854628 45.928847 12.485216 45.928847 12.876953 45.537109 L 14 44.414062 L 14 50 C 14 50.554 14.446 51 15 51 C 15.554 51 16 50.554 16 50 L 16 44.416016 L 17.121094 45.537109 C 17.512831 45.928847 18.143419 45.928847 18.535156 45.537109 C 18.926893 45.145372 18.926893 44.514784 18.535156 44.123047 L 15.707031 41.292969 C 15.511163 41.0971 15.255619 41 15 41 z "
       class="ColorScheme-Text"
       fill="currentColor"
       style="opacity:0.45" />
  </g>
  <g
     id="22-22-pamac-tray-no-update">
    <rect
       width="22"
       height="22"
       opacity="0"
       id="rect9"
       x="0"
       y="0" />
    <path
       d="M 10.339844,1.4921875 4.3339844,3.6035156 v -0.00195 C 3.5379469,3.8802668 3,4.6414842 3,5.484375 v 6.175781 c 0,1.971179 0.7188834,3.852949 1.984375,5.310547 0.6639722,0.765955 1.4731486,1.331514 2.2949219,1.775391 L 10.53125,20.5 a 1.0001,1.0001 0 0 0 0.949219,0 l 3.246094,-1.753906 c 0.821458,-0.444249 1.630375,-1.008908 2.292968,-1.773438 C 18.28481,15.514721 19,13.633547 19,11.664063 V 5.484375 C 19,4.6414848 18.462053,3.8802672 17.666016,3.6015625 v 0.00195 L 11.662109,1.4921875 c -0.428108,-0.1506639 -0.894781,-0.1498008 -1.322265,0 z M 11,3.3789063 17,5.4882812 v 6.1757818 c 0,1.484892 -0.540317,2.90124 -1.492187,3.998046 -0.452371,0.521965 -1.055706,0.958248 -1.732422,1.324219 L 11.005859,18.484375 8.2285156,16.986328 C 7.5502902,16.619988 6.9469559,16.184475 6.4941406,15.662109 a 1.0001,1.0001 0 0 0 0,-0.002 C 5.541348,14.563191 5,13.146425 5,11.660156 V 5.4882812 Z"
       id="path2"
       class="ColorScheme-Text"
       fill="currentColor" />
    <path
       id="rect2132"
       d="M 11 7 C 10.744835 7 10.488701 7.097795 10.292969 7.2929688 C 10.292621 7.2933159 10.291363 7.292621 10.291016 7.2929688 L 7.4628906 10.123047 C 7.0711535 10.514784 7.0711535 11.145372 7.4628906 11.537109 C 7.8546278 11.928847 8.485216 11.928847 8.8769531 11.537109 L 10 10.414062 L 10 13 C 10 13.554 10.446 14 11 14 C 11.554 14 12 13.554 12 13 L 12 10.416016 L 13.121094 11.537109 C 13.512831 11.928847 14.143419 11.928847 14.535156 11.537109 C 14.926893 11.145372 14.926893 10.514784 14.535156 10.123047 L 11.707031 7.2929688 C 11.511163 7.0971002 11.255619 7 11 7 z "
       class="ColorScheme-Text"
       fill="currentColor"
       style="opacity:0.45" />
  </g>
  <g
     id="22-22-pamac-tray-update"
     transform="translate(-17)">
    <rect
       width="22"
       height="22"
       opacity="0"
       id="rect2428"
       x="55"
       y="0" />
    <path
       id="path2430"
       class="ColorScheme-Text"
       d="m 66,1.3789062 c -0.223617,1.079e-4 -0.446414,0.038381 -0.660156,0.1132813 l -6.00586,2.1113281 v -0.00195 C 58.537947,3.8802637 58,4.6414842 58,5.484375 v 6.175781 c 0,1.971179 0.718883,3.852949 1.984375,5.310547 0.663972,0.765955 1.473149,1.331514 2.294922,1.775391 L 65.53125,20.5 a 1.0001,1.0001 0 0 0 0.949219,0 l 1.912109,-1.033203 A 3,3 0 0 1 68,18 a 3,3 0 0 1 0.07617,-0.634766 l -2.070313,1.119141 -2.777343,-1.498047 c -0.678226,-0.36634 -1.28156,-0.801853 -1.734375,-1.324219 a 1.0001,1.0001 0 0 0 0,-0.002 C 60.541348,14.563238 60,13.146425 60,11.660156 V 5.4882812 l 6,-2.109375 6,2.109375 V 11.664062 C 72,12.866638 71.640385,14.020668 71,15 a 3,3 0 0 1 1.921875,0.699219 C 73.618017,14.487123 74,13.099755 74,11.664062 V 5.484375 C 74,4.6414848 73.462053,3.8802672 72.666016,3.6015625 v 0.00195 L 66.662109,1.4921875 C 66.448055,1.4168555 66.223617,1.3787984 66,1.3789062 Z"
       fill="currentColor" />
    <path
       id="path2432"
       d="m 66,7 c -0.255165,0 -0.511299,0.097795 -0.707031,0.2929688 -3.48e-4,3.471e-4 -0.0016,-3.478e-4 -0.002,0 l -2.828078,2.8300782 c -0.391738,0.391737 -0.391738,1.022325 0,1.414062 0.391737,0.391738 1.022325,0.391738 1.414062,0 L 65,10.414062 V 13 c 0,0.554 0.446,1 1,1 0.554,0 1,-0.446 1,-1 v -2.583984 l 1.121094,1.121093 c 0.391737,0.391738 1.022325,0.391738 1.414062,0 0.391737,-0.391737 0.391737,-1.022325 0,-1.414062 L 66.707031,7.2929688 C 66.511163,7.0971002 66.255619,7 66,7 Z"
       class="ColorScheme-Text"
       fill="currentColor"
       style="opacity:0.45" />
    <circle
       cx="71"
       cy="18"
       r="2"
       class="ColorScheme-Highlight"
       fill="currentColor"
       id="circle18" />
  </g>
  <g
     id="pamac-tray-update">
    <rect
       style="fill:none;fill-opacity:1;stroke:none;stroke-width:2.11786;stroke-linecap:round;stroke-linejoin:round;stroke-miterlimit:4;stroke-dasharray:none;stroke-opacity:1;paint-order:stroke fill markers;stop-color:#000000"
       id="rect2633"
       width="32"
       height="32"
       x="39"
       y="30.050793"
       rx="0"
       ry="0" />
    <path
       id="path2635"
       class="ColorScheme-Text"
       d="m 54.978516,34.279297 c -0.255273,-3.87e-4 -0.511612,0.04138 -0.75586,0.126953 a 1.0001,1.0001 0 0 0 0,0.002 L 46.5,37.121094 c -0.909112,0.319029 -1.523437,1.185392 -1.523438,2.148437 v 7.941407 c 0,2.464838 0.898392,4.81817 2.480469,6.640624 0.823513,0.950002 1.835037,1.657175 2.871094,2.216797 l 4.181641,2.25586 a 1.0001,1.0001 0 0 0 0.949218,0 l 3.234375,-1.746094 a 3.5,3.5 0 0 1 -0.68164,-1.90625 l -3.027344,1.636719 -3.705078,-2 h -0.002 C 50.385498,53.826662 49.580778,53.249003 48.96875,52.542969 a 1.0001,1.0001 0 0 0 0,-0.002 C 47.69896,51.079134 46.976562,49.19121 46.976562,47.210938 v -7.941407 c 0,-0.122696 0.07022,-0.221341 0.185547,-0.261719 a 1.0001,1.0001 0 0 0 0.002,0 l 7.720704,-2.71289 c 0.06051,-0.02121 0.12579,-0.02034 0.183593,0 l 7.722657,2.71289 c 0.115326,0.04038 0.185546,0.139023 0.185546,0.261719 v 7.945313 c 0,1.352667 -0.335407,2.663404 -0.953124,3.824218 a 3.5,3.5 0 0 1 1.808593,0.851563 c 0.741153,-1.425275 1.144531,-3.025234 1.144531,-4.675781 v -7.945313 c 0,-0.963588 -0.61348,-1.829847 -1.523437,-2.148437 l -7.720703,-2.712891 c -0.24443,-0.08603 -0.498634,-0.12852 -0.753906,-0.128906 z"
       fill="currentColor" />
    <path
       id="path2637"
       d="m 54.97726,41 c -0.255165,0 -0.511299,0.09779 -0.707031,0.292969 -3.48e-4,3.47e-4 -0.0016,-3.48e-4 -0.002,0 l -2.828125,2.830078 c -0.391738,0.391737 -0.391738,1.022325 0,1.414062 0.391737,0.391738 1.022325,0.391738 1.414062,0 L 53.97726,44.414062 V 50 c 0,0.554 0.446,1 1,1 0.554,0 1,-0.446 1,-1 v -5.583984 l 1.121094,1.121093 c 0.391737,0.391738 1.022325,0.391738 1.414062,0 0.391737,-0.391737 0.391737,-1.022325 0,-1.414062 L 55.684291,41.292969 C 55.488423,41.0971 55.232879,41 54.97726,41 Z"
       class="ColorScheme-Text"
       fill="currentColor"
       style="opacity:0.45" />
    <circle
       cx="61.5"
       cy="54.5"
       r="2.5"
       class="ColorScheme-Highlight"
       fill="currentColor"
       id="circle2647"
       style="stroke-width:1.25" />
  </g>
</svg>
