<?xml version="1.0" encoding="UTF-8" standalone="no"?>
<svg
   width="22"
   height="22"
   version="1.1"
   id="svg15"
   sodipodi:docname="sogoupinyin.svg"
   inkscape:version="1.1.1 (3bf5ae0d25, 2021-09-20, custom)"
   xmlns:inkscape="http://www.inkscape.org/namespaces/inkscape"
   xmlns:sodipodi="http://sodipodi.sourceforge.net/DTD/sodipodi-0.dtd"
   xmlns:xlink="http://www.w3.org/1999/xlink"
   xmlns="http://www.w3.org/2000/svg"
   xmlns:svg="http://www.w3.org/2000/svg">
  <sodipodi:namedview
     id="namedview17"
     pagecolor="#ffffff"
     bordercolor="#666666"
     borderopacity="1.0"
     inkscape:pageshadow="2"
     inkscape:pageopacity="0.0"
     inkscape:pagecheckerboard="0"
     showgrid="true"
     inkscape:snap-bbox="true"
     inkscape:bbox-nodes="true"
     inkscape:snap-bbox-edge-midpoints="true"
     inkscape:snap-global="true"
     inkscape:zoom="2.876639"
     inkscape:cx="34.415164"
     inkscape:cy="41.367722"
     inkscape:window-width="1486"
     inkscape:window-height="974"
     inkscape:window-x="583"
     inkscape:window-y="25"
     inkscape:window-maximized="0"
     inkscape:current-layer="svg15"
     inkscape:snap-nodes="true">
    <inkscape:grid
       type="xygrid"
       id="grid834" />
  </sodipodi:namedview>
  <defs
     id="defs3">
    <style
       id="current-color-scheme"
       type="text/css">.ColorScheme-Text { color:#dedede; } .ColorScheme-Highlight { color:#5294e2; } .ColorScheme-ButtonBackground { color:#dedede; }</style>
  </defs>
  <g
     id="22-22-fcitx-sogoupinyin">
    <path
       d="M 0,0 H 22 V 22 H 0 Z"
       fill="none"
       id="path7" />
    <g
       id="g848"
       class="ColorScheme-Text"
       fill="currentColor">
      <path
         d="m 10.747404,7 c 0.297448,-0.005 0.599544,0.00207 0.833636,0.023446 1.176159,0.1113738 2.200131,0.4775199 3.083118,1.1110697 0.296774,0.2104163 0.302783,0.1848136 -0.235766,0.8023576 -0.438506,0.5015219 -0.50515,0.5444842 -0.613502,0.5158138 -0.02768,-0.00567 -0.152936,-0.065396 -0.282656,-0.1367696 -0.672911,-0.3764766 -1.435454,-0.6486086 -2.029403,-0.7215951 -0.318769,-0.038681 -0.565218,0.00771 -0.692985,0.1367696 -0.06502,0.06469 -0.09025,0.236119 -0.04689,0.3321538 0.07835,0.1804054 0.383746,0.3535549 1.195767,0.6773123 1.162088,0.4655149 1.645664,0.7134589 2.12317,1.0876609 0.475853,0.373809 0.77148,0.816296 0.881853,1.306474 0.06681,0.30245 0.04258,0.801624 -0.0482,1.055049 -0.09238,0.260768 -0.21227,0.446555 -0.409002,0.664301 -0.550219,0.613236 -1.595245,1.032775 -2.877377,1.135812 -0.234078,0.01734 -0.899593,0.01567 -1.086327,0 C 9.7235459,14.91983 9.2870542,14.839387 8.766132,14.645984 8.4556794,14.531609 8.2704189,14.440396 7.9950523,14.278664 7.7412803,14.130944 7.2795928,13.789146 7.114533,13.62608 6.9474257,13.462681 6.9509336,13.41443 7.192688,13.177998 c 0.3714747,-0.362472 0.8752508,-0.810627 0.9443425,-0.847974 0.091353,-0.04902 0.1162021,-0.04186 0.424634,0.160211 0.3064711,0.20208 0.6783126,0.384099 1.0537822,0.515814 0.5325333,0.190409 0.9155323,0.271838 1.3520233,0.27484 0.238093,0.0013 0.283283,-0.01296 0.409002,-0.05732 0.188735,-0.06869 0.270351,-0.14798 0.283956,-0.308705 0.0079,-0.10137 -0.01254,-0.144886 -0.06382,-0.22925 C 11.465238,12.477871 11.184209,12.31043 10.260187,11.894999 9.4895743,11.5472 9.2220773,11.412298 8.8755516,11.207283 8.0595891,10.723761 7.6267654,10.2418 7.4440325,9.6142388 7.3891459,9.4361675 7.4069777,8.9683579 7.4596628,8.7649974 7.5557043,8.428202 7.7010437,8.1695081 7.9468195,7.9287608 8.3956556,7.4845864 9.0912345,7.1786888 9.9605498,7.0456406 10.154634,7.01663 10.449834,7.0054533 10.747302,7.0000514 Z"
         id="path5"
         style="opacity:0.45" />
      <path
         id="rect962"
         d="M 6,3 C 4.338,3 3,4.338 3,6 v 10 c 0,1.662 1.338,3 3,3 h 10 c 1.662,0 3,-1.338 3,-3 V 6 C 19,4.338 17.662,3 16,3 Z m 0,2 h 10 c 0.554,0 1,0.446 1,1 v 10 c 0,0.554 -0.446,1 -1,1 H 6 C 5.446,17 5,16.554 5,16 V 6 C 5,5.446 5.446,5 6,5 Z" />
    </g>
  </g>
  <g
     id="22-22-fcitx-sogouwubi"
     transform="translate(-23)">
    <rect
       id="rect5389"
       width="22"
       height="22"
       x="48"
       y="0"
       style="fill:none" />
    <g
       id="g5492"
       class="ColorScheme-Text"
       fill="currentColor">
      <path
         id="rect5179"
         d="m 61,11 c -1.108,0 -2,0.892 -2,2 v 6 c 0,1.108 0.892,2 2,2 h 6 c 1.108,0 2,-0.892 2,-2 v -6 c 0,-1.108 -0.892,-2 -2,-2 z m 2.748047,1.001953 c 0.297308,-0.005 0.598049,0.0021 0.832031,0.02344 1.175604,0.111322 2.199461,0.476124 3.082031,1.109375 0.296634,0.210317 0.301967,0.185482 -0.236328,0.802734 -0.438299,0.501285 -0.504981,0.544282 -0.613281,0.515625 -0.02767,-0.0057 -0.151591,-0.06538 -0.28125,-0.136719 -0.672593,-0.376299 -1.435629,-0.647751 -2.029297,-0.720703 -0.318619,-0.03866 -0.5637,0.0077 -0.691406,0.136719 -0.06499,0.06466 -0.09022,0.236041 -0.04687,0.332031 0.07831,0.18032 0.381721,0.352177 1.193359,0.675781 1.161539,0.465295 1.645766,0.713865 2.123047,1.087891 0.475628,0.373632 0.770539,0.816695 0.88086,1.306641 0.06678,0.302308 0.04386,0.799429 -0.04688,1.052734 -0.09234,0.260645 -0.213517,0.44642 -0.410156,0.664062 -0.549959,0.612947 -1.593473,1.033731 -2.875,1.136719 -0.233968,0.01733 -0.899291,0.01566 -1.085937,0 -0.818908,-0.07 -1.254715,-0.150438 -1.775391,-0.34375 -0.310306,-0.114321 -0.496247,-0.205532 -0.771484,-0.367187 -0.253652,-0.147651 -0.715878,-0.489355 -0.88086,-0.652344 -0.167028,-0.163322 -0.163506,-0.212899 0.07813,-0.449219 0.3713,-0.362301 0.876253,-0.810326 0.945313,-0.847656 0.09131,-0.049 0.115541,-0.04182 0.423828,0.160156 0.306326,0.201984 0.677441,0.383972 1.052734,0.515625 0.532282,0.190319 0.915278,0.272391 1.351563,0.275391 0.237981,0.0013 0.284497,-0.0123 0.410156,-0.05664 0.188646,-0.06866 0.269605,-0.147945 0.283203,-0.308594 0.0079,-0.101321 -0.01319,-0.146143 -0.06445,-0.230468 -0.131308,-0.207645 -0.412351,-0.373828 -1.335937,-0.789063 -0.770249,-0.347634 -1.036451,-0.482582 -1.382813,-0.6875 -0.815578,-0.483294 -1.248995,-0.964532 -1.431641,-1.591797 -0.05486,-0.177987 -0.03703,-0.646345 0.01563,-0.849609 0.09599,-0.336637 0.240668,-0.595304 0.486328,-0.835937 0.448624,-0.443964 1.144768,-0.749828 2.013672,-0.882813 0.193992,-0.029 0.489782,-0.03952 0.787109,-0.04492 z"
         style="opacity:0.45" />
      <path
         id="path1264"
         d="m 54,3 c -1.662,0 -3,1.338 -3,3 v 10 c 0,1.662 1.338,3 3,3 h 5 v -2 h -5 c -0.554,0 -1,-0.446 -1,-1 V 6 c 0,-0.554 0.446,-1 1,-1 h 10 c 0.554,0 1,0.446 1,1 v 5 h 2 V 6 C 67,4.338 65.662,3 64,3 Z" />
      <path
         id="rect4637"
         d="m 55,7 v 1 h 3.169922 l -0.535156,2 H 56 v 1 h 1.365234 L 56.5625,14 H 55 v 1 h 4 v -1 h -1.402344 l 0.804688,-3 H 61 h 0.113281 1.03711 L 62.394531,10.085938 61.427734,9.8261719 61.380859,10 H 58.669922 L 59.205078,8 H 63 V 7 h -4.5625 z"
         style="opacity:0.45" />
    </g>
  </g>
  <g
     id="sogoupinyin">
    <path
       d="M 0,32 H 32.000001 V 64.000001 H 0 Z"
       fill="none"
       id="path5642"
       style="stroke-width:1.45455" />
    <g
       id="g6786"
       class="ColorScheme-Text"
       fill="currentColor">
      <path
         d="m 15.620852,42.002306 c 0.445962,-0.0075 0.898892,0.0031 1.249864,0.03515 1.763405,0.166982 3.298638,0.715941 4.622493,1.665817 0.44495,0.315475 0.45396,0.27709 -0.353482,1.202968 -0.657448,0.751927 -0.757367,0.816341 -0.919819,0.773355 -0.0415,-0.0085 -0.229295,-0.09805 -0.423783,-0.205057 -1.008891,-0.564448 -2.152164,-0.972454 -3.042667,-1.081881 -0.477928,-0.05799 -0.847426,0.01155 -1.038987,0.205057 -0.09749,0.09698 -0.135311,0.354011 -0.0703,0.497995 0.11747,0.27048 0.575348,0.530082 1.792804,1.015489 1.742309,0.697943 2.46733,1.069683 3.183251,1.630721 0.713442,0.560448 1.156673,1.223866 1.322154,1.958785 0.10017,0.453461 0.06384,1.201869 -0.07227,1.581826 -0.138504,0.390968 -0.318254,0.669516 -0.613213,0.995981 -0.824938,0.91942 -2.391737,1.548431 -4.314026,1.702913 -0.350952,0.026 -1.348752,0.02349 -1.628722,0 -1.22836,-0.104987 -1.882788,-0.225594 -2.663803,-0.515562 -0.465459,-0.171482 -0.743218,-0.308237 -1.156073,-0.550721 -0.380479,-0.221474 -1.072682,-0.73393 -1.320155,-0.978413 -0.250543,-0.244983 -0.245284,-0.317325 0.117177,-0.671805 0.556949,-0.543451 1.312256,-1.215366 1.415845,-1.271361 0.136964,-0.07349 0.17422,-0.06276 0.63665,0.240203 0.45949,0.302978 1.016988,0.575877 1.579927,0.773356 0.798423,0.285479 1.372649,0.407565 2.027077,0.412065 0.35697,0.002 0.424723,-0.01943 0.613213,-0.08593 0.282969,-0.102983 0.405335,-0.221865 0.425733,-0.462839 0.01184,-0.151983 -0.0188,-0.217226 -0.09569,-0.343712 -0.196962,-0.311468 -0.618306,-0.56251 -2.003685,-1.185363 -1.155372,-0.521452 -1.556429,-0.723709 -2.075972,-1.031087 -1.223366,-0.72494 -1.872295,-1.44754 -2.146264,-2.388437 -0.08229,-0.266981 -0.05556,-0.968364 0.02344,-1.27326 0.143995,-0.504956 0.3619,-0.892813 0.730391,-1.253764 0.672935,-0.665947 1.715811,-1.124576 3.019168,-1.324054 0.290989,-0.0435 0.73358,-0.06025 1.179571,-0.06835 z"
         id="path5640"
         style="opacity:0.45" />
      <path
         id="rect5693"
         d="M 9 36 C 6.23 36 4 38.23 4 41 L 4 55 C 4 57.77 6.23 60 9 60 L 23 60 C 25.77 60 28 57.77 28 55 L 28 41 C 28 38.23 25.77 36 23 36 L 9 36 z M 9 38 L 23 38 C 24.662 38 26 39.338 26 41 L 26 55 C 26 56.662 24.662 58 23 58 L 9 58 C 7.338 58 6 56.662 6 55 L 6 41 C 6 39.338 7.338 38 9 38 z " />
    </g>
  </g>
  <g
     id="sogouwubi">
    <rect
       id="rect5648"
       width="32"
       height="32"
       x="37"
       y="32"
       style="fill:none" />
    <g
       id="g6782"
       class="ColorScheme-Text"
       fill="currentColor">
      <path
         id="path5654"
         d="m 46.999999,42 v 1.500001 h 4.754882 l -0.802733,3 h -2.45215 V 48 h 2.047852 l -1.204101,4.500001 h -2.34375 V 54 h 5.999999 V 52.500001 H 50.896482 L 52.103515,48 h 3.896484 0.169921 1.555665 l 0.36621,-1.371092 -1.450196,-0.38965 -0.07031,0.260743 h -4.066405 l 0.802734,-3 h 5.692383 V 42 h -6.84375 z"
         style="opacity:0.45" />
      <path
         id="path6290"
         d="M 46 36 C 43.23 36 41 38.23 41 41 L 41 55 C 41 57.77 43.23 60 46 60 L 53.173828 60 C 53.063715 59.687064 53 59.351517 53 59 L 53 58 L 46 58 C 44.338 58 43 56.662 43 55 L 43 41 C 43 39.338 44.338 38 46 38 L 60 38 C 61.662 38 63 39.338 63 41 L 63 48 L 64 48 C 64.351517 48 64.687064 48.063715 65 48.173828 L 65 41 C 65 38.23 62.77 36 60 36 L 46 36 z " />
      <path
         id="rect6452"
         d="M 56 48 C 54.338 48 53 49.338 53 51 L 53 59 C 53 60.662 54.338 62 56 62 L 64 62 C 65.662 62 67 60.662 67 59 L 67 51 C 67 49.338 65.662 48 64 48 L 56 48 z M 59.683594 50.001953 C 60.055229 49.995753 60.434085 50.00456 60.726562 50.03125 C 62.196067 50.170402 63.474912 50.628358 64.578125 51.419922 C 64.948917 51.682818 64.956072 51.650309 64.283203 52.421875 C 63.735329 53.048481 63.651002 53.102228 63.515625 53.066406 C 63.481045 53.059306 63.326135 52.983702 63.164062 52.894531 C 62.323319 52.424157 61.369039 52.08533 60.626953 51.994141 C 60.228679 51.945821 59.921353 52.002781 59.761719 52.164062 C 59.680479 52.244883 59.648946 52.460091 59.703125 52.580078 C 59.801015 52.805478 60.182719 53.021275 61.197266 53.425781 C 62.649191 54.007401 63.253008 54.317624 63.849609 54.785156 C 64.444144 55.252197 64.813271 55.805536 64.951172 56.417969 C 65.034652 56.795854 65.006008 57.419697 64.892578 57.736328 C 64.777158 58.062135 64.626658 58.292399 64.380859 58.564453 C 63.69341 59.330637 62.387065 59.85564 60.785156 59.984375 C 60.492696 60.006045 59.661043 60.003955 59.427734 59.984375 C 58.4041 59.896885 57.85983 59.796328 57.208984 59.554688 C 56.821101 59.411786 56.59014 59.297773 56.246094 59.095703 C 55.929028 58.911141 55.350759 58.484986 55.144531 58.28125 C 54.935745 58.077097 54.940134 58.016103 55.242188 57.720703 C 55.706313 57.267827 56.335551 56.708771 56.421875 56.662109 C 56.536012 56.600869 56.567767 56.608859 56.953125 56.861328 C 57.336034 57.11381 57.800415 57.341293 58.269531 57.505859 C 58.934884 57.743758 59.413627 57.845859 59.958984 57.849609 C 60.256459 57.851309 60.313628 57.832764 60.470703 57.777344 C 60.706511 57.691524 60.807221 57.59339 60.824219 57.392578 C 60.834119 57.265925 60.808211 57.210874 60.744141 57.105469 C 60.580006 56.845912 60.230656 56.636231 59.076172 56.117188 C 58.113362 55.682643 57.778655 55.513962 57.345703 55.257812 C 56.32623 54.653695 55.784949 54.051659 55.556641 53.267578 C 55.488061 53.045093 55.510342 52.461111 55.576172 52.207031 C 55.696168 51.786234 55.878471 51.462901 56.185547 51.162109 C 56.746327 50.607152 57.61504 50.224825 58.701172 50.058594 C 58.943663 50.022344 59.311934 50.008703 59.683594 50.001953 z "
         style="opacity:0.45" />
    </g>
  </g>
  <use
     x="0"
     y="0"
     xlink:href="#sogoupinyin"
     id="fcitx-sogoupinyin"
     transform="translate(0,42.997609)"
     width="100%"
     height="100%" />
  <use
     x="0"
     y="0"
     xlink:href="#sogouwubi"
     id="fcitx-sogouwubi"
     transform="translate(0,43.499999)"
     width="100%"
     height="100%" />
  <use
     x="0"
     y="0"
     xlink:href="#sogoupinyin"
     id="sogou_notify"
     transform="translate(0,87.997609)"
     width="100%"
     height="100%" />
</svg>
