<?xml version="1.0" encoding="UTF-8" standalone="no"?>
<svg
   width="22"
   height="22"
   version="1.1"
   id="svg12"
   sodipodi:docname="start.svg"
   inkscape:version="1.1.1 (3bf5ae0d25, 2021-09-20, custom)"
   xmlns:inkscape="http://www.inkscape.org/namespaces/inkscape"
   xmlns:sodipodi="http://sodipodi.sourceforge.net/DTD/sodipodi-0.dtd"
   xmlns="http://www.w3.org/2000/svg"
   xmlns:svg="http://www.w3.org/2000/svg"
   xmlns:rdf="http://www.w3.org/1999/02/22-rdf-syntax-ns#"
   xmlns:cc="http://creativecommons.org/ns#"
   xmlns:dc="http://purl.org/dc/elements/1.1/">
  <metadata
     id="metadata16">
    <rdf:RDF>
      <cc:Work
         rdf:about="">
        <dc:format>image/svg+xml</dc:format>
        <dc:type
           rdf:resource="http://purl.org/dc/dcmitype/StillImage" />
      </cc:Work>
    </rdf:RDF>
  </metadata>
  <sodipodi:namedview
     pagecolor="#3a3a3a"
     bordercolor="#666666"
     borderopacity="1"
     objecttolerance="10"
     gridtolerance="10"
     guidetolerance="10"
     inkscape:pageopacity="0"
     inkscape:pageshadow="2"
     inkscape:window-width="1920"
     inkscape:window-height="1001"
     id="namedview14"
     showgrid="true"
     inkscape:zoom="15.170655"
     inkscape:cx="-14.435765"
     inkscape:cy="3.7902121"
     inkscape:window-x="0"
     inkscape:window-y="0"
     inkscape:window-maximized="1"
     inkscape:current-layer="start-here-kde"
     inkscape:snap-bbox="true"
     inkscape:bbox-nodes="true"
     inkscape:snap-bbox-edge-midpoints="true"
     inkscape:pagecheckerboard="0">
    <inkscape:grid
       type="xygrid"
       id="grid4539" />
  </sodipodi:namedview>
  <defs
     id="defs7386">
    <style
       id="current-color-scheme"
       type="text/css">
   .ColorScheme-Text { color:#dedede; } .ColorScheme-Highlight { color:#5294e2; } .ColorScheme-ButtonBackground { color:#dedede; }
  </style>
  </defs>
  <g
     id="22-22-start-here-kde">
    <path
       id="path822"
       d="M 11,0 A 11,11 0 0 0 0,11 11,11 0 0 0 11,22 11,11 0 0 0 22,11 11,11 0 0 0 11,0 Z m 0,2 a 9,9 0 0 1 9,9 9,9 0 0 1 -9,9 9,9 0 0 1 -9,-9 9,9 0 0 1 9,-9 z"
       style="opacity:0.45"
       class="ColorScheme-Text"
       fill="currentColor" />
    <path
       id="path2"
       d="m 11,5 c -3.3137085,0 -6,2.6862915 -6,6 0,3.313708 2.6862915,6 6,6 3.313708,0 6,-2.686292 6,-6 0,-3.3137085 -2.686292,-6 -6,-6 z"
       class="ColorScheme-Text"
       fill="currentColor" />
  </g>
  <g
     id="start-here-kde">
    <rect
       style="color:#bebebe;display:inline;overflow:visible;visibility:visible;fill:none;stroke:none;stroke-width:1;marker:none"
       id="rect6336-6"
       width="32"
       height="32"
       x="-39"
       y="-5" />
    <path
       id="path4548"
       d="m -23,5 c -3.313708,0 -6,2.6862915 -6,6 0,3.313708 2.686292,6 6,6 3.313708,0 6,-2.686292 6,-6 0,-3.3137085 -2.686292,-6 -6,-6 z"
       class="ColorScheme-Text"
       fill="currentColor" />
    <path
       id="path830"
       class="ColorScheme-Text"
       d="M -23 0 C -29.075131 0 -34 4.9248678 -34 11 C -34 17.075131 -29.075131 22 -23 22 C -16.924869 22 -12 17.075131 -12 11 C -12 4.9248678 -16.924869 0 -23 0 z M -23 2 C -18.029438 2 -14 6.0294373 -14 11 C -14 15.970562 -18.029438 20 -23 20 C -27.970562 20 -32 15.970562 -32 11 C -32 6.0294373 -27.970562 2 -23 2 z "
       fill="currentColor"
       style="opacity:0.45" />
  </g>
</svg>
