<?xml version="1.0" encoding="UTF-8" standalone="no"?>
<svg
   width="32"
   height="32"
   version="1.1"
   id="svg19"
   sodipodi:docname="view.svg"
   inkscape:version="1.1.1 (3bf5ae0d25, 2021-09-20, custom)"
   xmlns:inkscape="http://www.inkscape.org/namespaces/inkscape"
   xmlns:sodipodi="http://sodipodi.sourceforge.net/DTD/sodipodi-0.dtd"
   xmlns="http://www.w3.org/2000/svg"
   xmlns:svg="http://www.w3.org/2000/svg">
  <sodipodi:namedview
     id="namedview21"
     pagecolor="#ffffff"
     bordercolor="#666666"
     borderopacity="1.0"
     inkscape:pageshadow="2"
     inkscape:pageopacity="0"
     inkscape:pagecheckerboard="0"
     showgrid="true"
     inkscape:snap-bbox="true"
     inkscape:bbox-nodes="true"
     inkscape:snap-nodes="false"
     inkscape:zoom="5.78125"
     inkscape:cx="29.059459"
     inkscape:cy="10.983784"
     inkscape:window-width="1368"
     inkscape:window-height="703"
     inkscape:window-x="0"
     inkscape:window-y="0"
     inkscape:window-maximized="1"
     inkscape:current-layer="svg19">
    <inkscape:grid
       type="xygrid"
       id="grid838" />
  </sodipodi:namedview>
  <defs
     id="defs5">
    <style
       id="current-color-scheme"
       type="text/css">.ColorScheme-Text { color:#363636; } .ColorScheme-Highlight { color:#5294e2; } .ColorScheme-ButtonBackground { color:#dedede; }</style>
  </defs>
  <g
     id="view-refresh"
     transform="matrix(0 -1 -1 0 -218.84 494.56)"
     class="ColorScheme-Text"
     fill="currentColor">
    <rect
       transform="scale(-1)"
       x="-481"
       y="258.97"
       width="16"
       height="16"
       fill="none"
       id="rect7" />
    <path
       transform="matrix(0 -1 -1 0 1079 -14.938)"
       d="m252.06 598.02-3.5625 2.9824 3.5606 3.0176v-2c2.2091 0 4 1.7909 4 4s-1.7909 4-4 4-4-1.7909-4-4c0-6e-3 -4e-3 -0.0113-4e-3 -0.0176h-1.9922c-1.1e-4 6e-3 -4e-3 0.0113-4e-3 0.0176 0 0.0333 4e-3 0.0665 8e-3 0.0996 0.0538 3.2672 2.7141 5.9004 5.9941 5.9004 3.3137 0 6-2.6863 6-6s-2.6863-6-6-6v-2z"
       id="path9" />
  </g>
  <g
     id="view-history"
     class="ColorScheme-Text"
     fill="currentColor">
    <rect
       width="32"
       height="32"
       rx="0"
       ry="0"
       id="rect12"
       x="0"
       y="0"
       style="fill:none" />
    <path
       d="M 16,5 C 9.9367188,5 5,9.9367188 5,16 c 0,6.063281 4.9367188,11 11,11 6.063281,0 11,-4.936719 11,-11 -0.0012,-1.707395 -0.399519,-3.39133 -1.164063,-4.917969 a 1,1 0 0 0 -1.341796,-0.447265 1,1 0 0 0 -0.447266,1.341797 C 24.672437,13.225683 24.99901,14.603009 25,16 c 0,4.982402 -4.017598,9 -9,9 -4.982402,0 -9,-4.017598 -9,-9 0,-4.982402 4.017598,-9 9,-9 1.284515,7.625e-4 2.553546,0.2764631 3.722656,0.8085937 A 1,1 0 0 0 21.046875,7.3125 1,1 0 0 0 20.550781,5.9882812 C 19.121906,5.3379164 17.569922,5.0009319 16,5 Z"
       id="path996" />
    <rect
       id="rect1984"
       width="2"
       height="7"
       x="-1.7071068"
       y="-27.921597"
       rx="1"
       ry="1"
       transform="rotate(135)"
       style="opacity:0.45" />
    <rect
       id="rect1743"
       width="2"
       height="7"
       x="15"
       y="9"
       rx="1"
       ry="1" />
  </g>
</svg>
