<?xml version="1.0" encoding="UTF-8" standalone="no"?>
<svg
   width="173"
   height="56"
   version="1.1"
   viewBox="0 0 173 56"
   id="svg118"
   sodipodi:docname="panel-background.svg"
   inkscape:version="1.1.2 (0a00cf5339, 2022-02-04)"
   xmlns:inkscape="http://www.inkscape.org/namespaces/inkscape"
   xmlns:sodipodi="http://sodipodi.sourceforge.net/DTD/sodipodi-0.dtd"
   xmlns:xlink="http://www.w3.org/1999/xlink"
   xmlns="http://www.w3.org/2000/svg"
   xmlns:svg="http://www.w3.org/2000/svg">
  <sodipodi:namedview
     id="namedview120"
     pagecolor="#ffffff"
     bordercolor="#666666"
     borderopacity="1.0"
     inkscape:pageshadow="2"
     inkscape:pageopacity="0.0"
     inkscape:pagecheckerboard="0"
     showgrid="true"
     inkscape:zoom="2.8284271"
     inkscape:cx="58.866639"
     inkscape:cy="56.038212"
     inkscape:window-width="1440"
     inkscape:window-height="731"
     inkscape:window-x="0"
     inkscape:window-y="0"
     inkscape:window-maximized="1"
     inkscape:current-layer="svg118"
     inkscape:snap-bbox="true"
     inkscape:bbox-nodes="true"
     inkscape:snap-nodes="true"
     inkscape:snap-smooth-nodes="true">
    <inkscape:grid
       type="xygrid"
       id="grid986" />
  </sodipodi:namedview>
  <defs
     id="defs16">
    <style
       id="current-color-scheme"
       type="text/css">.ColorScheme-Text {
        color:#31363b;
        stop-color:#31363b;
      }
      .ColorScheme-Background {
        color:#eff0f1;
        stop-color:#eff0f1;
      }
      .ColorScheme-Highlight {
        color:#3281ea;
        stop-color:#3281ea;
      }
      .ColorScheme-ViewText {
        color:#31363b;
        stop-color:#31363b;
      }
      .ColorScheme-ViewBackground {
        color:#fcfcfc;
        stop-color:#fcfcfc;
      }
      .ColorScheme-ViewHover {
        color:#93cee9;
        stop-color:#93cee9;
      }
      .ColorScheme-ViewFocus{
        color:#3281ea;
        stop-color:#3281ea;
      }
      .ColorScheme-ButtonText {
        color:#31363b;
        stop-color:#31363b;
      }
      .ColorScheme-ButtonBackground {
        color:#eff0f1;
        stop-color:#eff0f1;
      }
      .ColorScheme-ButtonHover {
        color:#93cee9;
        stop-color:#93cee9;
      }
      .ColorScheme-ButtonFocus{
        color:#3281ea;
        stop-color:#3281ea;
      }</style>
    <linearGradient
       id="linearGradient4270">
      <stop
         stop-opacity=".66663"
         offset="0"
         id="stop3" />
      <stop
         stop-opacity="0"
         offset="1"
         id="stop5" />
    </linearGradient>
    <linearGradient
       id="linearGradient4948"
       x1="-20.500072"
       x2="-7.9999909"
       y1="932.3667"
       y2="932.37335"
       gradientTransform="matrix(0.85715937,0,0,1.0004181,-1.4279997,-0.38313249)"
       gradientUnits="userSpaceOnUse"
       xlink:href="#linearGradient4270" />
    <radialGradient
       id="radialGradient994"
       cx="77"
       cy="12"
       r="6"
       gradientTransform="matrix(-7.6625328e-5,-3.7130035,3.7141193,-7.6651589e-5,-48.563415,1236.2806)"
       gradientUnits="userSpaceOnUse"
       xlink:href="#linearGradient4270"
       fx="77"
       fy="12" />
  </defs>
  <use
     x="0"
     y="0"
     xlink:href="#shadow-top"
     id="shadow-bottom"
     transform="rotate(180,66,28)"
     width="100%"
     height="100%" />
  <use
     x="0"
     y="0"
     xlink:href="#shadow-top"
     id="shadow-right"
     transform="rotate(90,66,28)"
     width="100%"
     height="100%" />
  <g
     id="shadow-left"
     transform="matrix(2.3333,0,0,0.375,14.667301,-321.64001)">
    <rect
       transform="scale(-1,1)"
       x="-19.428577"
       y="916.37335"
       width="12"
       height="32"
       id="rect1393"
       style="fill:none" />
    <rect
       transform="scale(-1,1)"
       x="-12.142588"
       y="916.37335"
       width="4.7141819"
       height="32"
       id="rect76"
       style="opacity:0.5;fill:url(#linearGradient4948)" />
    <rect
       transform="scale(-1,1)"
       x="-12.571337"
       y="916.37335"
       width="0.85715508"
       height="32"
       id="rect1660"
       fill="currentColor"
       class="ColorScheme-Highlight" />
  </g>
  <use
     x="0"
     y="0"
     xlink:href="#shadow-topleft"
     id="shadow-bottomleft"
     transform="rotate(-90,66.003547,27.996453)"
     width="100%"
     height="100%" />
  <use
     x="0"
     y="0"
     xlink:href="#shadow-topleft"
     id="shadow-bottomright"
     transform="rotate(180,66,27.992546)"
     width="100%"
     height="100%" />
  <use
     x="0"
     y="0"
     xlink:href="#shadow-topleft"
     id="shadow-topright"
     transform="rotate(90,65.993024,27.993414)"
     width="100%"
     height="100%" />
  <g
     id="shadow-topleft"
     transform="matrix(1.1667,0,0,1.1667,64.667,-1086.8072)">
    <path
       d="m -27.999486,926.3797 v 23.99931 h 10.28542 c 0,-7.59749 6.116397,-13.71389 13.7138946,-13.71389 V 926.3797 Z"
       id="path18"
       style="opacity:0.5;fill:url(#radialGradient994);stroke-width:1" />
    <path
       id="path914"
       d="m -4.0001714,934.95085 c -8.5455026,0 -15.4254236,6.88051 -15.4281306,15.42813 h 1.714236 c 0,-7.60025 6.116117,-13.71386 13.7138946,-13.71386 z"
       class="ColorScheme-Highlight"
       fill="currentColor"
       sodipodi:nodetypes="ccccc" />
  </g>
  <use
     x="0"
     y="0"
     xlink:href="#shadow-left"
     id="shadow-top"
     transform="rotate(90,65.999999,27.999998)"
     width="100%"
     height="100%" />
  <use
     x="0"
     y="0"
     xlink:href="#top"
     id="left"
     transform="rotate(-90,66,28)"
     width="100%"
     height="100%" />
  <use
     x="0"
     y="0"
     xlink:href="#top"
     id="right"
     transform="rotate(90,66.000151,28.000151)"
     width="100%"
     height="100%" />
  <use
     x="0"
     y="0"
     xlink:href="#top"
     id="bottom"
     transform="rotate(180,65.99985,27.997498)"
     width="100%"
     height="100%" />
  <rect
     id="hint-tile-center"
     y="-1.4648e-5"
     width="5"
     height="5"
     fill="#f60" />
  <g
     id="top"
     transform="matrix(0.375,0,0,2.6667,52.875,-2421.6572)">
    <rect
       class="ColorScheme-Background"
       transform="matrix(0,-1,-1,0,0,0)"
       x="-916.35999"
       y="-51"
       width="6"
       height="32"
       id="rect31"
       fill="currentColor"
       style="opacity:0.8" />
  </g>
  <g
     id="topleft"
     transform="matrix(1.3333,0,0,1.3333,26.6675,-1207.7826)">
    <path
       d="m 25,910.36 c -6.648,0 -12,5.352 -12,12 h 12 v -10 z"
       id="path34"
       class="ColorScheme-Background"
       fill="currentColor"
       style="opacity:0.8" />
  </g>
  <rect
     id="center"
     x="60"
     y="22"
     width="12"
     height="12"
     class="ColorScheme-Background"
     fill="currentColor"
     style="opacity:0.8" />
  <rect
     id="hint-top-margin"
     x="67"
     y="6"
     width="4"
     height="4"
     fill="#ff00ff" />
  <rect
     id="hint-bottom-margin"
     x="66"
     y="46"
     width="4"
     height="4"
     fill="#ff00ff" />
  <rect
     id="hint-right-margin"
     transform="rotate(90)"
     x="29"
     y="-88"
     width="4"
     height="4"
     fill="#ff00ff" />
  <rect
     id="hint-left-margin"
     transform="rotate(90)"
     x="29"
     y="-48"
     width="4"
     height="4"
     fill="#ff00ff" />
  <rect
     id="shadow-hint-top-margin"
     x="67"
     y="-6"
     width="4"
     height="12"
     fill="#ff6600" />
  <rect
     id="shadow-hint-bottom-margin"
     x="66"
     y="50"
     width="4"
     height="12"
     fill="#ff6600" />
  <rect
     id="shadow-hint-right-margin"
     transform="rotate(90)"
     x="29"
     y="-100"
     width="4"
     height="12"
     fill="#ff6600" />
  <rect
     id="shadow-hint-left-margin"
     transform="rotate(90)"
     x="29"
     y="-44"
     width="4"
     height="12"
     fill="#ff6600" />
  <g
     id="mask-top"
     transform="matrix(0.375,0,0,1.3333333,123.875,-1207.8133)">
    <rect
       transform="matrix(0,-1,-1,0,0,0)"
       x="-922.35999"
       y="-51"
       width="12"
       height="32"
       id="rect92" />
  </g>
  <g
     id="mask-topleft"
     transform="matrix(1.5,0,0,1.5,95.499997,-1359.5)">
    <path
       d="M 23.666667,910.36 C 17.757333,910.36 13,915.11733 13,921.02667 h 10.666667 z"
       id="path95" />
  </g>
  <g
     id="mask-topright"
     transform="matrix(2,0,0,2,44.999997,-1814.72)">
    <path
       d="m 49,910.36 v 8 h 8 c 0,-4.432 -3.568,-8 -8,-8 z"
       id="path98" />
  </g>
  <g
     id="mask-bottom"
     transform="matrix(0.375,0,0,1.6,123.875,-1476.976)">
    <rect
       transform="rotate(90)"
       x="944.35999"
       y="-51"
       width="10"
       height="32"
       id="rect101" />
  </g>
  <g
     id="mask-bottomleft"
     transform="matrix(1.3333333,0,0,1.3333333,97.666667,-1222.48)">
    <path
       d="m 13,942.36 c 0,6.648 5.352,12 12,12 v -12 z"
       id="path104" />
  </g>
  <g
     id="mask-bottomright"
     transform="matrix(1.3333333,0,0,1.3333333,82.999998,-1222.48)">
    <path
       d="m 45,942.36 v 12 c 6.648,0 12,-5.352 12,-12 z"
       id="path107" />
  </g>
  <g
     id="mask-left"
     transform="matrix(1.3333333,0,0,0.60001,97.666667,-531.42)">
    <rect
       transform="scale(-1,1)"
       x="-25"
       y="922.35999"
       width="12"
       height="20"
       id="rect110" />
  </g>
  <g
     id="mask-right"
     transform="matrix(1.6,0,0,0.375,67.799997,-321.63499)">
    <rect
       x="47"
       y="916.35999"
       width="10"
       height="32"
       id="rect113" />
  </g>
  <rect
     id="mask-center"
     x="131"
     y="22"
     width="12"
     height="12" />
  <rect
     id="shadow-center"
     x="60"
     y="80"
     width="12"
     height="12"
     style="fill:none" />
  <rect
     style="fill:currentColor;opacity:0.9"
     id="thick-center"
     width="32"
     height="32"
     x="20"
     y="-62.210289"
     class="ColorScheme-Background" />
  <rect
     transform="rotate(90)"
     style="fill:#800080;fill-opacity:1;stroke:none;stroke-width:1.1547"
     id="thick-hint-right-margin"
     width="4"
     height="8"
     x="-42.210293"
     y="-57" />
  <rect
     transform="rotate(90)"
     y="-21"
     x="-42.210293"
     height="8"
     width="4"
     id="thick-hint-left-margin"
     style="fill:#800080;fill-opacity:1;stroke:none;stroke-width:1.1547" />
  <rect
     y="-68.210289"
     x="39"
     height="8"
     width="4"
     id="thick-hint-top-margin"
     style="fill:#800080;fill-opacity:1;stroke:none;stroke-width:1.1547" />
  <rect
     style="fill:#800080;fill-opacity:1;stroke:none;stroke-width:1.1547"
     id="thick-hint-bottom-margin"
     width="4"
     height="8"
     x="40"
     y="-32.210289" />
  <rect
     y="6"
     x="62"
     height="4"
     width="4"
     id="hint-top-inset"
     style="fill:#00ff00" />
  <rect
     style="fill:#ffcc00"
     id="shadow-hint-top-inset"
     width="4"
     height="12"
     x="62"
     y="-6" />
  <rect
     transform="rotate(90)"
     style="fill:#00ff00"
     id="hint-right-inset"
     width="4"
     height="4"
     x="24"
     y="-88" />
  <rect
     y="-100"
     x="24"
     height="12"
     width="4"
     id="shadow-hint-right-inset"
     style="fill:#ffcc00"
     transform="rotate(90)" />
  <rect
     transform="rotate(90)"
     y="-48"
     x="24"
     height="4"
     width="4"
     id="hint-left-inset"
     style="fill:#00ff00" />
  <rect
     style="fill:#ffcc00"
     id="shadow-hint-left-inset"
     width="4"
     height="12"
     x="24"
     y="-44"
     transform="rotate(90)" />
  <rect
     style="fill:#00ff00"
     id="hint-bottom-inset"
     width="4"
     height="4"
     x="61"
     y="46" />
  <rect
     y="50"
     x="61"
     height="12"
     width="4"
     id="shadow-hint-bottom-inset"
     style="fill:#ffcc00" />
  <use
     x="0"
     y="0"
     xlink:href="#topleft"
     id="topright"
     transform="rotate(90,66.00015,28.000151)"
     width="100%"
     height="100%" />
  <use
     x="0"
     y="0"
     xlink:href="#topleft"
     id="bottomright"
     transform="rotate(180,66.000151,28)"
     width="100%"
     height="100%" />
  <use
     x="0"
     y="0"
     xlink:href="#topleft"
     id="bottomleft"
     transform="rotate(-90,66.00015,28.000151)"
     width="100%"
     height="100%" />
</svg>
