<?xml version="1.0" encoding="UTF-8" standalone="no"?>
<svg
   width="173"
   height="56"
   version="1.1"
   viewBox="0 0 173 56"
   id="svg118"
   sodipodi:docname="panel-background.svg"
   inkscape:version="1.1.1 (3bf5ae0d25, 2021-09-20, custom)"
   xmlns:inkscape="http://www.inkscape.org/namespaces/inkscape"
   xmlns:sodipodi="http://sodipodi.sourceforge.net/DTD/sodipodi-0.dtd"
   xmlns:xlink="http://www.w3.org/1999/xlink"
   xmlns="http://www.w3.org/2000/svg"
   xmlns:svg="http://www.w3.org/2000/svg">
  <sodipodi:namedview
     id="namedview120"
     pagecolor="#ffffff"
     bordercolor="#666666"
     borderopacity="1.0"
     inkscape:pageshadow="2"
     inkscape:pageopacity="0.0"
     inkscape:pagecheckerboard="0"
     showgrid="false"
     inkscape:zoom="5.656854"
     inkscape:cx="66.644817"
     inkscape:cy="5.6568545"
     inkscape:window-width="1920"
     inkscape:window-height="1018"
     inkscape:window-x="0"
     inkscape:window-y="28"
     inkscape:window-maximized="1"
     inkscape:current-layer="svg118">
    <inkscape:grid
       type="xygrid"
       id="grid986" />
  </sodipodi:namedview>
  <defs
     id="defs16">
    <style
       id="current-color-scheme"
       type="text/css">.ColorScheme-Text {
        color:#31363b;
        stop-color:#31363b;
      }
      .ColorScheme-Background {
        color:#eff0f1;
        stop-color:#eff0f1;
      }
      .ColorScheme-Highlight {
        color:#3281ea;
        stop-color:#3281ea;
      }
      .ColorScheme-ViewText {
        color:#31363b;
        stop-color:#31363b;
      }
      .ColorScheme-ViewBackground {
        color:#fcfcfc;
        stop-color:#fcfcfc;
      }
      .ColorScheme-ViewHover {
        color:#93cee9;
        stop-color:#93cee9;
      }
      .ColorScheme-ViewFocus{
        color:#3281ea;
        stop-color:#3281ea;
      }
      .ColorScheme-ButtonText {
        color:#31363b;
        stop-color:#31363b;
      }
      .ColorScheme-ButtonBackground {
        color:#eff0f1;
        stop-color:#eff0f1;
      }
      .ColorScheme-ButtonHover {
        color:#93cee9;
        stop-color:#93cee9;
      }
      .ColorScheme-ButtonFocus{
        color:#3281ea;
        stop-color:#3281ea;
      }</style>
    <linearGradient
       id="linearGradient4270">
      <stop
         stop-opacity=".66663"
         offset="0"
         id="stop3" />
      <stop
         stop-opacity="0"
         offset="1"
         id="stop5" />
    </linearGradient>
    <linearGradient
       id="linearGradient4948"
       x1="-21"
       x2="-7.9999909"
       y1="932.36"
       y2="932.37335"
       gradientTransform="matrix(.85714 0 0 1 -1 0)"
       gradientUnits="userSpaceOnUse"
       xlink:href="#linearGradient4270" />
    <radialGradient
       id="radialGradient994"
       cx="77"
       cy="12"
       r="6"
       gradientTransform="matrix(-8.939877e-5,-4.3319598,4.333263,-8.9429379e-5,8.0080641,355.56117)"
       gradientUnits="userSpaceOnUse"
       xlink:href="#linearGradient4270"
       fx="77"
       fy="12" />
  </defs>
  <use
     x="0"
     y="0"
     xlink:href="#shadow-left"
     id="shadow-top"
     transform="rotate(90,65.997498,27.997497)"
     width="100%"
     height="100%" />
  <use
     x="0"
     y="0"
     xlink:href="#top"
     id="left"
     transform="rotate(-90,65.997361,27.997634)"
     width="100%"
     height="100%" />
  <use
     x="0"
     y="0"
     xlink:href="#top"
     id="right"
     transform="rotate(90,66.000137,28.000137)"
     width="100%"
     height="100%" />
  <use
     x="0"
     y="0"
     xlink:href="#top"
     id="bottom"
     transform="rotate(180,65.99985,27.997484)"
     width="100%"
     height="100%" />
  <use
     x="0"
     y="0"
     xlink:href="#shadow-topleft"
     id="shadow-bottomleft"
     transform="rotate(-90,66.000001,27.999998)"
     width="100%"
     height="100%" />
  <use
     x="0"
     y="0"
     xlink:href="#shadow-top"
     id="shadow-bottom"
     transform="rotate(180,66,28)"
     width="100%"
     height="100%" />
  <use
     x="0"
     y="0"
     xlink:href="#shadow-top"
     id="shadow-right"
     transform="rotate(90,66,28)"
     width="100%"
     height="100%" />
  <use
     x="0"
     y="0"
     xlink:href="#shadow-topleft"
     id="shadow-bottomright"
     transform="rotate(180,66,27.996092)"
     width="100%"
     height="100%" />
  <use
     x="0"
     y="0"
     xlink:href="#shadow-topleft"
     id="shadow-topright"
     transform="rotate(90,65.996569,27.99696)"
     width="100%"
     height="100%" />
  <g
     id="shadow-topleft"
     transform="matrix(1.1667 0 0 1.1667 64.667 -1086.8)">
    <path
       transform="matrix(.85715 0 0 .85715 -55.429 931.51)"
       d="m32-6v28h12c0-8.864 7.136-16 16-16v-12h-28z"
       fill="url(#radialGradient994)"
       id="path18"
       style="opacity:0.25" />
    <path
       id="path914"
       d="M 60 4 C 50.029963 4 42.003159 12.024869 42 21.994141 L 44 21.994141 C 44 13.129813 51.135673 5.9921875 60 5.9921875 L 60 4 z "
       transform="matrix(0.85711837,0,0,0.85711837,-55.427274,931.51624)"
       class="ColorScheme-Highlight"
       fill="currentColor" />
  </g>
  <rect
     id="hint-tile-center"
     y="-1.4648e-5"
     width="5"
     height="5"
     fill="#f60" />
  <g
     id="top"
     transform="matrix(0.375,0,0,2.6667,52.875,-2421.6572)">
    <rect
       class="ColorScheme-Background"
       transform="matrix(0,-1,-1,0,0,0)"
       x="-916.35999"
       y="-51"
       width="6"
       height="32"
       id="rect31"
       fill="currentColor"
       style="opacity:1" />
  </g>
  <g
     id="topleft"
     transform="matrix(1.3333,0,0,1.3333,26.6675,-1207.7826)">
    <path
       d="m 25,910.36 c -6.648,0 -12,5.352 -12,12 h 12 v -10 z"
       id="path34"
       class="ColorScheme-Background"
       fill="currentColor"
       style="opacity:1" />
  </g>
  <rect
     id="center"
     x="60"
     y="22"
     width="12"
     height="12"
     class="ColorScheme-Background"
     fill="currentColor"
     style="opacity:1" />
  <rect
     id="hint-top-margin"
     x="67"
     y="6"
     width="4"
     height="2.9999001"
     fill="#ff00ff" />
  <rect
     id="hint-bottom-margin"
     x="66"
     y="47"
     width="4"
     height="3"
     fill="#ff00ff" />
  <rect
     id="hint-right-margin"
     transform="rotate(90)"
     x="29"
     y="-88"
     width="4"
     height="3"
     fill="#ff00ff" />
  <rect
     id="hint-left-margin"
     transform="rotate(90)"
     x="29"
     y="-47"
     width="4"
     height="3"
     fill="#ff00ff" />
  <g
     id="shadow-left"
     transform="matrix(2.3333 0 0 .375 15.667 -321.64)">
    <rect
       transform="scale(-1,1)"
       x="-19"
       y="916.36"
       width="6"
       height="32"
       fill="none"
       opacity="1"
       id="rect74" />
    <rect
       transform="scale(-1,1)"
       x="-12.143"
       y="916.36"
       width="5.1429"
       height="32"
       fill="url(#linearGradient4948)"
       id="rect76"
       style="opacity:0.25" />
    <rect
       transform="scale(-1,1)"
       x="-14"
       y="916.36"
       width="1"
       height="32"
       fill="none"
       opacity="1"
       id="rect78" />
    <rect
       transform="scale(-1,1)"
       x="-12.142888"
       y="916.35999"
       width="0.85715508"
       height="32"
       id="rect1660"
       fill="currentColor"
       class="ColorScheme-Highlight" />
  </g>
  <rect
     id="shadow-hint-top-margin"
     x="67"
     y="-6"
     width="4"
     height="12"
     fill="#ff6600" />
  <rect
     id="shadow-hint-bottom-margin"
     x="66"
     y="50"
     width="4"
     height="12"
     fill="#ff6600" />
  <rect
     id="shadow-hint-right-margin"
     transform="rotate(90)"
     x="29"
     y="-100"
     width="4"
     height="12"
     fill="#ff6600" />
  <rect
     id="shadow-hint-left-margin"
     transform="rotate(90)"
     x="29"
     y="-44"
     width="4"
     height="12"
     fill="#ff6600" />
  <g
     id="mask-top"
     transform="matrix(0.375,0,0,1.3333333,123.875,-1207.8133)">
    <rect
       transform="matrix(0,-1,-1,0,0,0)"
       x="-922.35999"
       y="-51"
       width="12"
       height="32"
       opacity="0.97"
       id="rect92" />
  </g>
  <g
     id="mask-topleft"
     transform="matrix(1.5,0,0,1.5,95.499997,-1359.5)">
    <path
       d="M 23.666667,910.36 C 17.757333,910.36 13,915.11733 13,921.02667 h 10.666667 z"
       opacity="0.97"
       stroke-width="2"
       id="path95" />
  </g>
  <g
     id="mask-topright"
     transform="matrix(2,0,0,2,44.999997,-1814.72)">
    <path
       d="m 49,910.36 v 8 h 8 c 0,-4.432 -3.568,-8 -8,-8 z"
       opacity="0.97"
       stroke-width="1.6"
       id="path98" />
  </g>
  <g
     id="mask-bottom"
     transform="matrix(0.375,0,0,1.6,123.875,-1476.976)">
    <rect
       transform="rotate(90)"
       x="944.35999"
       y="-51"
       width="10"
       height="32"
       opacity="0.97"
       id="rect101" />
  </g>
  <g
     id="mask-bottomleft"
     transform="matrix(1.3333333,0,0,1.3333333,97.666667,-1222.48)">
    <path
       d="m 13,942.36 c 0,6.648 5.352,12 12,12 v -12 z"
       opacity="0.97"
       stroke-width="2.4"
       id="path104" />
  </g>
  <g
     id="mask-bottomright"
     transform="matrix(1.3333333,0,0,1.3333333,82.999998,-1222.48)">
    <path
       d="m 45,942.36 v 12 c 6.648,0 12,-5.352 12,-12 z"
       opacity="0.97"
       stroke-width="2.4"
       id="path107" />
  </g>
  <g
     id="mask-left"
     transform="matrix(1.3333333,0,0,0.60001,97.666667,-531.42)">
    <rect
       transform="scale(-1,1)"
       x="-25"
       y="922.35999"
       width="12"
       height="20"
       opacity="0.97"
       id="rect110" />
  </g>
  <g
     id="mask-right"
     transform="matrix(1.6,0,0,0.375,67.799997,-321.63499)">
    <rect
       x="47"
       y="916.35999"
       width="10"
       height="32"
       opacity="0.97"
       id="rect113" />
  </g>
  <rect
     id="mask-center"
     x="131"
     y="22"
     width="12"
     height="12"
     opacity="0.97" />
  <rect
     id="shadow-center"
     class="ColorScheme-Background"
     x="60"
     y="80"
     width="12"
     height="12"
     color="#eff0f1"
     opacity="0"
     stroke-width=".375" />
  <rect
     style="fill:currentColor;opacity:0.9"
     id="thick-center"
     width="32"
     height="32"
     x="20"
     y="-62.210289"
     class="ColorScheme-Background" />
  <rect
     transform="rotate(90)"
     style="fill:#800080;fill-opacity:1;stroke:none;stroke-width:1.1547"
     id="thick-hint-right-margin"
     width="4"
     height="8"
     x="-42.210293"
     y="-57" />
  <rect
     transform="rotate(90)"
     y="-21"
     x="-42.210293"
     height="8"
     width="4"
     id="thick-hint-left-margin"
     style="fill:#800080;fill-opacity:1;stroke:none;stroke-width:1.1547" />
  <rect
     y="-68.210289"
     x="39"
     height="8"
     width="4"
     id="thick-hint-top-margin"
     style="fill:#800080;fill-opacity:1;stroke:none;stroke-width:1.1547" />
  <rect
     style="fill:#800080;fill-opacity:1;stroke:none;stroke-width:1.1547"
     id="thick-hint-bottom-margin"
     width="4"
     height="8"
     x="40"
     y="-32.210289" />
  <rect
     y="6"
     x="62"
     height="3"
     width="4"
     id="hint-top-inset"
     style="fill:#00ff00;fill-opacity:1;stroke:none;stroke-width:0.707106" />
  <rect
     style="fill:#ffcc00;fill-opacity:1;stroke:none;stroke-width:1.41422"
     id="shadow-hint-top-inset"
     width="3.9999998"
     height="12"
     x="62"
     y="-5.999896" />
  <rect
     transform="rotate(90)"
     style="fill:#00ff00;fill-opacity:1;stroke:none;stroke-width:0.707106"
     id="hint-right-inset"
     width="4"
     height="3"
     x="24"
     y="-88" />
  <rect
     y="-100"
     x="24.000023"
     height="12"
     width="4"
     id="shadow-hint-right-inset"
     style="fill:#ffcc00;fill-opacity:1;stroke:none;stroke-width:1.41422"
     transform="rotate(90)" />
  <rect
     transform="rotate(90)"
     y="-47"
     x="24"
     height="3"
     width="3.9999998"
     id="hint-left-inset"
     style="fill:#00ff00;fill-opacity:1;stroke:none;stroke-width:0.707106" />
  <rect
     style="fill:#ffcc00;fill-opacity:1;stroke:none;stroke-width:1.41421"
     id="shadow-hint-left-inset"
     width="4.0000229"
     height="12"
     x="24"
     y="-44"
     transform="rotate(90)" />
  <rect
     style="fill:#00ff00;fill-opacity:1;stroke:none;stroke-width:0.70711"
     id="hint-bottom-inset"
     width="4"
     height="3"
     x="61"
     y="47" />
  <rect
     y="50.000099"
     x="61"
     height="11.999977"
     width="3.9999998"
     id="shadow-hint-bottom-inset"
     style="fill:#ffcc00;fill-opacity:1;stroke:none;stroke-width:1.41421" />
  <use
     x="0"
     y="0"
     xlink:href="#topleft"
     id="topright"
     transform="rotate(90,66.000144,28.000145)"
     width="100%"
     height="100%" />
  <use
     x="0"
     y="0"
     xlink:href="#topleft"
     id="bottomright"
     transform="rotate(180,66.000151,27.999994)"
     width="100%"
     height="100%" />
  <use
     x="0"
     y="0"
     xlink:href="#topleft"
     id="bottomleft"
     transform="rotate(-90,66.000156,28.000145)"
     width="100%"
     height="100%" />
</svg>
