<?xml version="1.0" encoding="UTF-8" standalone="no"?>
<svg
   id="svg4306"
   width="22"
   height="22"
   version="1.1"
   style="enable-background:new"
   sodipodi:docname="close.svg"
   inkscape:version="1.1.1 (3bf5ae0d25, 2021-09-20, custom)"
   xmlns:inkscape="http://www.inkscape.org/namespaces/inkscape"
   xmlns:sodipodi="http://sodipodi.sourceforge.net/DTD/sodipodi-0.dtd"
   xmlns="http://www.w3.org/2000/svg"
   xmlns:svg="http://www.w3.org/2000/svg"
   xmlns:rdf="http://www.w3.org/1999/02/22-rdf-syntax-ns#"
   xmlns:cc="http://creativecommons.org/ns#"
   xmlns:dc="http://purl.org/dc/elements/1.1/">
  <metadata
     id="metadata31">
    <rdf:RDF>
      <cc:Work
         rdf:about="">
        <dc:format>image/svg+xml</dc:format>
        <dc:type
           rdf:resource="http://purl.org/dc/dcmitype/StillImage" />
      </cc:Work>
    </rdf:RDF>
  </metadata>
  <defs
     id="defs29" />
  <sodipodi:namedview
     pagecolor="#ffffff"
     bordercolor="#666666"
     borderopacity="1"
     objecttolerance="10"
     gridtolerance="10"
     guidetolerance="10"
     inkscape:pageopacity="0"
     inkscape:pageshadow="2"
     inkscape:window-width="1920"
     inkscape:window-height="1010"
     id="namedview27"
     showgrid="true"
     inkscape:zoom="5.3636364"
     inkscape:cx="45.864407"
     inkscape:cy="-12.118644"
     inkscape:window-x="0"
     inkscape:window-y="0"
     inkscape:window-maximized="1"
     inkscape:current-layer="svg4306"
     inkscape:pagecheckerboard="0">
    <inkscape:grid
       type="xygrid"
       id="grid838" />
  </sodipodi:namedview>
  <g
     id="active-center">
    <rect
       id="rect4175"
       width="22"
       height="22"
       x="0"
       y="0"
       style="opacity:0.00100002;fill:#000000;fill-opacity:1;fill-rule:nonzero;stroke:none;stroke-width:2;stroke-linecap:round;stroke-linejoin:round;stroke-miterlimit:4;stroke-dasharray:none;stroke-opacity:1" />
    <path
       style="fill:#000000;opacity:0.65"
       d="m 7.9999998,6.9999998 a 1,1 0 0 0 -1,1 1,1 0 0 0 0.29,0.71 l 2.3,2.2900002 -2.3,2.29 a 1,1 0 0 0 -0.29,0.71 1,1 0 0 0 1,1 1,1 0 0 0 0.71,-0.29 L 11,12.41 13.28,14.7 A 1,1 0 0 0 14,15 1,1 0 0 0 15,14 1,1 0 0 0 14.71,13.29 L 12.41,11 14.7,8.7199998 a 1,1 0 0 0 0.3,-0.72 1,1 0 0 0 -1,-1 1,1 0 0 0 -0.71,0.29 l -2.29,2.3 -2.2800002,-2.29 a 1,1 0 0 0 -0.01,-0.01 1,1 0 0 0 -0.71,-0.29 z"
       id="path839" />
  </g>
  <g
     id="hover-center">
    <rect
       id="rect4224"
       width="22"
       height="22"
       x="23"
       y="-4.7683716e-07"
       style="opacity:0.00100002;fill:#000000;fill-opacity:1;fill-rule:nonzero;stroke:none;stroke-width:2;stroke-linecap:round;stroke-linejoin:round;stroke-miterlimit:4;stroke-dasharray:none;stroke-opacity:1" />
    <circle
       id="circle4230"
       cx="34"
       cy="10.999999"
       r="11"
       style="fill:#333333;fill-opacity:1;fill-rule:nonzero;stroke:none;stroke-width:0;stroke-linecap:square;stroke-linejoin:round;stroke-miterlimit:4;stroke-dasharray:none;stroke-dashoffset:478.437;stroke-opacity:0.4" />
    <path
       style="opacity:1;fill:#ffffff"
       d="m 31,6.9999989 a 1,1 0 0 0 -1,1 1,1 0 0 0 0.29,0.71 l 2.3,2.2900001 -2.3,2.29 a 1,1 0 0 0 -0.29,0.71 1,1 0 0 0 1,1 1,1 0 0 0 0.71,-0.29 l 2.29,-2.3 2.28,2.29 a 1,1 0 0 0 0.72,0.3 1,1 0 0 0 1,-1 1,1 0 0 0 -0.29,-0.71 l -2.3,-2.29 2.29,-2.2800001 a 1,1 0 0 0 0.3,-0.72 1,1 0 0 0 -1,-1 1,1 0 0 0 -0.71,0.29 l -2.29,2.3 -2.28,-2.29 a 1,1 0 0 0 -0.01,-0.01 1,1 0 0 0 -0.71,-0.29 z"
       id="path1227" />
  </g>
  <g
     id="pressed-center"
     transform="translate(24)">
    <rect
       id="rect1357"
       width="22"
       height="22"
       x="23"
       y="-4.7683716e-07"
       style="opacity:0.00100002;fill:#000000;fill-opacity:1;fill-rule:nonzero;stroke:none;stroke-width:2;stroke-linecap:round;stroke-linejoin:round;stroke-miterlimit:4;stroke-dasharray:none;stroke-opacity:1" />
    <circle
       id="circle1359"
       cx="34"
       cy="10.999999"
       r="11"
       style="fill:#4d4d4d;fill-opacity:1;fill-rule:nonzero;stroke:none;stroke-width:0;stroke-linecap:square;stroke-linejoin:round;stroke-miterlimit:4;stroke-dasharray:none;stroke-dashoffset:478.437;stroke-opacity:0.4" />
    <path
       style="opacity:1;fill:#ffffff"
       d="m 31,6.9999989 a 1,1 0 0 0 -1,1 1,1 0 0 0 0.29,0.71 l 2.3,2.2900001 -2.3,2.29 a 1,1 0 0 0 -0.29,0.71 1,1 0 0 0 1,1 1,1 0 0 0 0.71,-0.29 l 2.29,-2.3 2.28,2.29 a 1,1 0 0 0 0.72,0.3 1,1 0 0 0 1,-1 1,1 0 0 0 -0.29,-0.71 l -2.3,-2.29 2.29,-2.2800001 a 1,1 0 0 0 0.3,-0.72 1,1 0 0 0 -1,-1 1,1 0 0 0 -0.71,0.29 l -2.29,2.3 -2.28,-2.29 a 1,1 0 0 0 -0.01,-0.01 1,1 0 0 0 -0.71,-0.29 z"
       id="path1361" />
  </g>
  <g
     id="inactive-center"
     transform="translate(72.59)"
     style="opacity:0.35">
    <rect
       id="rect4569"
       width="22"
       height="22"
       x="0"
       y="0"
       style="opacity:0.00100002;fill:#000000;fill-opacity:1;fill-rule:nonzero;stroke:none;stroke-width:2;stroke-linecap:round;stroke-linejoin:round;stroke-miterlimit:4;stroke-dasharray:none;stroke-opacity:1" />
    <path
       style="opacity:0.65;fill:#000000"
       d="m 7.9999998,6.9999998 a 1,1 0 0 0 -1,1 1,1 0 0 0 0.29,0.71 l 2.3,2.2900002 -2.3,2.29 a 1,1 0 0 0 -0.29,0.71 1,1 0 0 0 1,1 1,1 0 0 0 0.71,-0.29 L 11,12.41 13.28,14.7 A 1,1 0 0 0 14,15 1,1 0 0 0 15,14 1,1 0 0 0 14.71,13.29 L 12.41,11 14.7,8.7199998 a 1,1 0 0 0 0.3,-0.72 1,1 0 0 0 -1,-1 1,1 0 0 0 -0.71,0.29 l -2.29,2.3 -2.2800002,-2.29 a 1,1 0 0 0 -0.01,-0.01 1,1 0 0 0 -0.71,-0.29 z"
       id="path4571" />
  </g>
  <g
     id="deactivated-center"
     transform="translate(97.59)"
     style="opacity:0.35">
    <rect
       id="rect4575"
       width="22"
       height="22"
       x="0"
       y="0"
       style="opacity:0.00100002;fill:#000000;fill-opacity:1;fill-rule:nonzero;stroke:none;stroke-width:2;stroke-linecap:round;stroke-linejoin:round;stroke-miterlimit:4;stroke-dasharray:none;stroke-opacity:1" />
    <path
       style="opacity:0.65;fill:#000000"
       d="m 7.9999998,6.9999998 a 1,1 0 0 0 -1,1 1,1 0 0 0 0.29,0.71 l 2.3,2.2900002 -2.3,2.29 a 1,1 0 0 0 -0.29,0.71 1,1 0 0 0 1,1 1,1 0 0 0 0.71,-0.29 L 11,12.41 13.28,14.7 A 1,1 0 0 0 14,15 1,1 0 0 0 15,14 1,1 0 0 0 14.71,13.29 L 12.41,11 14.7,8.7199998 a 1,1 0 0 0 0.3,-0.72 1,1 0 0 0 -1,-1 1,1 0 0 0 -0.71,0.29 l -2.29,2.3 -2.2800002,-2.29 a 1,1 0 0 0 -0.01,-0.01 1,1 0 0 0 -0.71,-0.29 z"
       id="path4577" />
  </g>
</svg>
