<?xml version="1.0" encoding="UTF-8" standalone="no"?>
<svg
   inkscape:version="1.1.1 (3bf5ae0d25, 2021-09-20, custom)"
   sodipodi:docname="button.svg"
   id="svg414"
   version="1.0"
   height="212"
   width="220"
   xmlns:inkscape="http://www.inkscape.org/namespaces/inkscape"
   xmlns:sodipodi="http://sodipodi.sourceforge.net/DTD/sodipodi-0.dtd"
   xmlns:xlink="http://www.w3.org/1999/xlink"
   xmlns="http://www.w3.org/2000/svg"
   xmlns:svg="http://www.w3.org/2000/svg">
  <sodipodi:namedview
     inkscape:document-rotation="0"
     inkscape:snap-nodes="false"
     inkscape:snap-bbox-edge-midpoints="true"
     inkscape:bbox-paths="true"
     inkscape:bbox-nodes="true"
     inkscape:snap-bbox="true"
     inkscape:current-layer="svg414"
     inkscape:window-maximized="0"
     inkscape:window-y="50"
     inkscape:window-x="404"
     inkscape:cy="54.937456"
     inkscape:cx="124.17029"
     inkscape:zoom="6.015932"
     showgrid="false"
     id="namedview416"
     inkscape:window-height="971"
     inkscape:window-width="1482"
     inkscape:pageshadow="2"
     inkscape:pageopacity="0"
     guidetolerance="10"
     gridtolerance="10"
     objecttolerance="10"
     borderopacity="1"
     bordercolor="#666666"
     pagecolor="#a8a8a8"
     inkscape:pagecheckerboard="0"
     showguides="false">
    <inkscape:grid
       id="grid1331"
       type="xygrid" />
  </sodipodi:namedview>
  <defs
     id="defs18">
    <style
       type="text/css"
       id="current-color-scheme">.ColorScheme-Text {
        color:#31363b;
        stop-color:#31363b;
      }
      .ColorScheme-Background {
        color:#eff0f1;
        stop-color:#eff0f1;
      }
      .ColorScheme-Highlight {
        color:#3daee9;
        stop-color:#3daee9;
      }
      .ColorScheme-ViewText {
        color:#31363b;
        stop-color:#31363b;
      }
      .ColorScheme-ViewBackground {
        color:#fcfcfc;
        stop-color:#fcfcfc;
      }
      .ColorScheme-ViewHover {
        color:#93cee9;
        stop-color:#93cee9;
      }
      .ColorScheme-ViewFocus{
        color:#3daee9;
        stop-color:#3daee9;
      }
      .ColorScheme-ButtonText {
        color:#31363b;
        stop-color:#31363b;
      }
      .ColorScheme-ButtonBackground {
        color:#eff0f1;
        stop-color:#eff0f1;
      }
      .ColorScheme-ButtonHover {
        color:#93cee9;
        stop-color:#93cee9;
      }
      .ColorScheme-ButtonFocus{
        color:#3daee9;
        stop-color:#3daee9;
      }</style>
  </defs>
  <use
     x="0"
     y="0"
     xlink:href="#focus-top"
     id="focus-bottom"
     transform="rotate(180,48.00001,119.00001)"
     width="100%"
     height="100%" />
  <use
     x="0"
     y="0"
     xlink:href="#focus-top"
     id="focus-left"
     transform="matrix(0,0.50000002,1,0,-83.000015,94.999994)"
     width="100%"
     height="100%" />
  <use
     x="0"
     y="0"
     xlink:href="#focus-top"
     id="focus-right"
     transform="matrix(0,0.50000002,-1,0,179.00003,94.999994)"
     width="100%"
     height="100%" />
  <use
     x="0"
     y="0"
     xlink:href="#hover-top"
     id="hover-bottom"
     transform="matrix(1,0,0,-1,-7e-6,147.99998)"
     width="100%"
     height="100%" />
  <use
     x="0"
     y="0"
     xlink:href="#hover-top"
     id="hover-left"
     transform="matrix(0,0.50000002,1,0,-37.999984,49.999985)"
     width="100%"
     height="100%" />
  <use
     x="0"
     y="0"
     xlink:href="#hover-top"
     id="hover-right"
     transform="matrix(0,0.50000002,-1,0,133.99996,49.999985)"
     width="100%"
     height="100%" />
  <path
     id="hover-center"
     class="ColorScheme-Text"
     d="M 24,62.000008 V 85.99997 H 72.00003 V 62.000008 Z"
     fill="currentColor"
     style="opacity:0.2" />
  <g
     id="hover-topleft"
     transform="translate(-167.14,-768.86003)">
    <path
       id="path2151-9-5-3"
       transform="translate(81.139996,758.86)"
       d="m 109,65 c -3.324,0 -6,2.676 -6,6 h 2 c 0,-2.216 1.784,-4 4,-4 z"
       style="color:#3daee6;opacity:1;fill:none;stroke-width:1.5"
       inkscape:connector-curvature="0" />
    <path
       id="path10-91-9-7-6"
       d="m 190.14,824.86 c -2.77,0 -5,2.23 -5,5 h 5 z"
       fill="currentColor"
       class="ColorScheme-Text"
       style="opacity:0.2" />
  </g>
  <g
     id="hover-top"
     transform="matrix(0.3664122,0,0,1,-45.669619,-768.86)">
    <path
       class="ColorScheme-Text"
       d="M 190.14,824.85998 V 829.86 h 131 v -5.00002 z"
       id="path13-26-1-3-7"
       fill="currentColor"
       style="opacity:0.2" />
    <path
       style="color:#3daee6;opacity:1;fill:none;stroke-width:0.707112"
       inkscape:connector-curvature="0"
       id="path2149-9-6-5"
       d="M 190.14,823.85997 V 825.86 h 131 v -2.00003 z"
       class="ColorScheme-Highlight" />
  </g>
  <use
     x="0"
     y="0"
     xlink:href="#hover-topleft"
     id="hover-topright"
     transform="rotate(90,47.99999,85.999964)"
     width="100%"
     height="100%" />
  <use
     x="0"
     y="0"
     xlink:href="#hover-topleft"
     id="hover-bottomright"
     transform="rotate(180,47.99998,73.999967)"
     width="100%"
     height="100%" />
  <use
     x="0"
     y="0"
     xlink:href="#hover-topleft"
     id="hover-bottomleft"
     transform="rotate(-90,35.99998,73.999963)"
     width="100%"
     height="100%" />
  <use
     x="0"
     y="0"
     xlink:href="#normal-top"
     id="normal-bottom"
     transform="matrix(1,0,0,-1,-8e-6,58.000038)"
     width="100%"
     height="100%" />
  <use
     x="0"
     y="0"
     xlink:href="#normal-top"
     id="normal-left"
     transform="matrix(0,0.50000002,1,0,6.9999848,5.0000037)"
     width="100%"
     height="100%" />
  <use
     x="0"
     y="0"
     xlink:href="#normal-top"
     id="normal-right"
     transform="matrix(0,0.50000002,-1,0,89.000028,5.0000037)"
     width="100%"
     height="100%" />
  <rect
     id="normal-hint-compose-over-border"
     x="5"
     y="15.000009"
     width="3"
     height="3"
     ry="0"
     style="fill:#4e9a06" />
  <rect
     id="hover-hint-top-margin"
     x="47"
     y="56.000008"
     width="2"
     height="0.1"
     style="fill:#9a06ff;stroke-width:0.316228" />
  <rect
     id="hover-hint-right-margin"
     transform="rotate(-90)"
     x="-74.000008"
     y="77.899994"
     width="2"
     height="0.1"
     style="fill:#9a06ff;stroke-width:0.223607" />
  <rect
     id="hover-hint-left-margin"
     transform="rotate(-90)"
     x="-75.000008"
     y="18"
     width="2"
     height="0.1"
     style="fill:#9a06ff;stroke-width:0.223607" />
  <rect
     height="0.1"
     width="2"
     y="91.900009"
     x="47"
     id="hover-hint-bottom-margin"
     style="fill:#9a06ff;stroke-width:0.182574" />
  <path
     id="normal-center"
     class="ColorScheme-Text"
     d="M 24.00001,17.000028 V 40.999991 H 72.00002 V 17.000028 Z"
     fill="currentColor"
     style="opacity:0.1" />
  <g
     style="opacity:1"
     id="normal-topleft"
     transform="translate(-167.14,-813.85999)">
    <path
       id="path2151-9-5"
       transform="translate(81.139996,758.86)"
       d="m 109,65 c -3.324,0 -6,2.676 -6,6 h 2 c 0,-2.216 1.784,-4 4,-4 z"
       style="color:#3daee6;opacity:1;fill:none;stroke-width:1.5"
       inkscape:connector-curvature="0" />
    <path
       id="path10-91-9-7"
       d="m 190.14,824.86 c -2.77,0 -5,2.23 -5,5 h 5 z"
       fill="currentColor"
       class="ColorScheme-Text"
       style="opacity:0.1" />
  </g>
  <g
     style="opacity:1"
     id="normal-top"
     transform="matrix(0.3664122,0,0,0.99999999,-45.669608,-813.85996)">
    <path
       class="ColorScheme-Text"
       d="M 190.14,824.85998 V 829.86 h 131 v -5.00002 z"
       id="path13-26-1-3"
       fill="currentColor"
       style="opacity:0.1" />
    <path
       style="color:#3daee6;opacity:1;fill:none;stroke-width:0.707112"
       inkscape:connector-curvature="0"
       id="path2149-9-6"
       d="M 190.14,823.85997 V 825.86 h 131 v -2.00003 z"
       class="ColorScheme-Highlight" />
  </g>
  <path
     id="focus-center"
     class="ColorScheme-Text"
     d="m 24.00004,107.00001 v 23.99997 h 48 v -23.99997 z"
     fill="currentColor"
     style="opacity:0.1" />
  <g
     style="opacity:1"
     id="focus-topleft"
     transform="translate(-167.14,-723.85999)">
    <path
       id="path5203"
       d="m 190.14,826.86 c -1.662,0 -3,1.338 -3,3 h 3 z"
       fill="currentColor"
       class="ColorScheme-Text"
       style="opacity:0.1;stroke-width:0.6" />
    <path
       id="path2151-0"
       transform="translate(81.139996,758.86)"
       d="m 109,65 c -3.324,0 -6,2.676 -6,6 h 2 c 0,-2.216 1.784,-4 4,-4 z"
       style="color:#3daee6;opacity:1;fill:none;stroke-width:1.5"
       inkscape:connector-curvature="0" />
    <path
       id="path2033"
       class="ColorScheme-Highlight"
       d="m 109,111 c -2.77,0 -5,2.23 -5,5 h 2 c 0,-1.662 1.338,-3 3,-3 z"
       transform="translate(81.139996,713.86)"
       fill="currentColor"
       style="opacity:0.35" />
  </g>
  <g
     style="opacity:1"
     id="focus-top"
     transform="matrix(0.3664122,0,0,0.99999999,-45.669588,-723.85996)">
    <path
       class="ColorScheme-Text"
       d="m 190.14,826.85998 v 3 h 131 v -3 z"
       id="path13-26-3"
       fill="currentColor"
       style="opacity:0.1;stroke-width:0.774596" />
    <path
       style="color:#3daee6;opacity:1;fill:none;stroke-width:0.707112"
       inkscape:connector-curvature="0"
       id="path2149-1"
       d="M 190.14,823.85997 V 825.86 h 131 v -2.00003 z"
       class="ColorScheme-Highlight" />
    <path
       class="ColorScheme-Highlight"
       d="m 190.14,824.85999 v 2 h 131 v -2 z"
       id="path2054"
       fill="currentColor"
       style="opacity:0.35" />
  </g>
  <rect
     id="focus-hint-top-margin"
     x="47"
     y="101.00001"
     width="1.9999999"
     height="0.1"
     style="fill:#9a06ff;stroke-width:0.316228" />
  <rect
     id="focus-hint-right-margin"
     transform="rotate(-90)"
     x="-119.00001"
     y="77.899994"
     width="2"
     height="0.1"
     style="fill:#9a06ff;stroke-width:0.223607" />
  <rect
     id="focus-hint-left-margin"
     transform="rotate(-90)"
     x="-120.00001"
     y="18"
     width="1.9999999"
     height="0.1"
     style="fill:#9a06ff;stroke-width:0.223607" />
  <rect
     height="0.1"
     width="1.9999999"
     y="136.90001"
     x="47"
     id="focus-hint-bottom-margin"
     style="fill:#9a06ff;stroke-width:0.182574" />
  <rect
     y="41.999905"
     x="47"
     height="6.0001016"
     width="2"
     id="normal-hint-bottom-margin"
     style="fill:#4e9a06;fill-opacity:1;fill-rule:nonzero;stroke:none;stroke-width:1.00001" />
  <rect
     style="fill:#4e9a06;fill-opacity:1;fill-rule:nonzero;stroke:none;stroke-width:1"
     id="normal-hint-top-margin"
     width="2"
     height="6"
     x="47"
     y="10.000009" />
  <rect
     y="17.000023"
     x="-29.999935"
     height="5.9999771"
     width="2"
     id="normal-hint-left-margin"
     style="fill:#4e9a06;fill-opacity:1;fill-rule:nonzero;stroke:none;stroke-width:0.999998"
     transform="rotate(-90)" />
  <rect
     transform="rotate(-90)"
     style="fill:#4e9a06;fill-opacity:1;fill-rule:nonzero;stroke:none;stroke-width:1"
     id="normal-hint-right-margin"
     width="2"
     height="6.0000415"
     x="-30.000008"
     y="72.999954" />
  <use
     x="0"
     y="0"
     xlink:href="#normal-topleft"
     id="normal-topright"
     transform="rotate(90,48,41.000006)"
     width="100%"
     height="100%" />
  <use
     x="0"
     y="0"
     xlink:href="#normal-topleft"
     id="normal-bottomright"
     transform="rotate(180,48,29.000008)"
     width="100%"
     height="100%" />
  <use
     x="0"
     y="0"
     xlink:href="#normal-topleft"
     id="normal-bottomleft"
     transform="rotate(-90,36,29.00001)"
     width="100%"
     height="100%" />
  <use
     x="0"
     y="0"
     xlink:href="#focus-topleft"
     id="focus-topright"
     transform="rotate(90,48,131)"
     width="100%"
     height="100%" />
  <use
     x="0"
     y="0"
     xlink:href="#focus-topleft"
     id="focus-bottomright"
     transform="rotate(180,48,119)"
     width="100%"
     height="100%" />
  <use
     x="0"
     y="0"
     xlink:href="#focus-topleft"
     id="focus-bottomleft"
     transform="rotate(-90,36,119.00001)"
     width="100%"
     height="100%" />
  <use
     x="0"
     y="0"
     xlink:href="#pressed-top"
     id="pressed-bottom"
     transform="rotate(180,47.99996,165.99998)"
     width="100%"
     height="100%" />
  <use
     x="0"
     y="0"
     xlink:href="#pressed-top"
     id="pressed-left"
     transform="matrix(0,0.50000002,1,0,-130.00006,142)"
     width="100%"
     height="100%" />
  <use
     x="0"
     y="0"
     xlink:href="#pressed-top"
     id="pressed-right"
     transform="matrix(0,0.50000002,-1,0,225.99996,142)"
     width="100%"
     height="100%" />
  <path
     id="pressed-center"
     class="ColorScheme-Text"
     d="m 24,154.00001 v 23.99996 h 48.00001 v -23.99996 z"
     fill="currentColor"
     style="opacity:0.15" />
  <g
     id="pressed-topleft"
     transform="translate(-167.14004,-676.86)">
    <path
       id="path5203-3"
       d="m 190.14,824.86 c -2.77,0 -5,2.23 -5,5 h 5 z"
       fill="currentColor"
       class="ColorScheme-Text"
       style="opacity:0.15" />
    <path
       id="path2151-0-5"
       transform="translate(81.139996,758.86)"
       d="m 109,65 c -3.324,0 -6,2.676 -6,6 h 2 c 0,-2.216 1.784,-4 4,-4 z"
       style="color:#3daee6;opacity:1;fill:none;stroke-width:1.5"
       inkscape:connector-curvature="0" />
    <path
       id="path2033-6"
       class="ColorScheme-Highlight"
       d="m 109,111 c -2.77,0 -5,2.23 -5,5 h 2 c 0,-1.662 1.338,-3 3,-3 z"
       transform="translate(81.139996,713.86)"
       fill="currentColor" />
  </g>
  <g
     id="pressed-top"
     transform="matrix(0.3664122,0,0,1,-45.669638,-676.85997)">
    <path
       class="ColorScheme-Text"
       d="M 190.14,824.85999 V 829.86 h 131 v -5.00001 z"
       id="path13-26-3-2"
       fill="currentColor"
       style="opacity:0.15" />
    <path
       style="color:#3daee6;opacity:1;fill:none;stroke-width:0.707112"
       inkscape:connector-curvature="0"
       id="path2149-1-9"
       d="M 190.14,823.85997 V 825.86 h 131 v -2.00003 z"
       class="ColorScheme-Highlight" />
    <path
       class="ColorScheme-Highlight"
       d="m 190.14,824.85999 v 2 h 131 v -2 z"
       id="path2054-1"
       fill="currentColor" />
  </g>
  <use
     x="0"
     y="0"
     xlink:href="#pressed-topleft"
     id="pressed-topright"
     transform="rotate(90,47.99994,177.99997)"
     width="100%"
     height="100%" />
  <use
     x="0"
     y="0"
     xlink:href="#pressed-topleft"
     id="pressed-bottomright"
     transform="rotate(180,47.99996,165.99998)"
     width="100%"
     height="100%" />
  <use
     x="0"
     y="0"
     xlink:href="#pressed-topleft"
     id="pressed-bottomleft"
     transform="rotate(-90,35.99998,165.99998)"
     width="100%"
     height="100%" />
  <g
     id="toolbutton-hover-bottom"
     transform="matrix(1,0,0,2,118,63)"
     fill-rule="evenodd">
    <path
       id="path1565-7-9"
       d="m 4,-11 v 3 h 22 v -3 z"
       fill="currentColor"
       class="ColorScheme-ButtonText"
       style="opacity:0.1" />
  </g>
  <g
     id="toolbutton-hover-bottomright"
     transform="matrix(2,0,0,2,91,63)"
     fill-rule="evenodd">
    <path
       id="rect1509-7-9-6-2-2"
       d="m 27,-8 v -3 h 3 c 0,1.662 -1.338,3 -3,3 z"
       fill="currentColor"
       class="ColorScheme-ButtonText"
       style="opacity:0.1" />
  </g>
  <g
     id="toolbutton-hover-right"
     transform="matrix(2,0,0,1,91,52)"
     fill-rule="evenodd">
    <path
       id="path1565-7-8-1"
       d="m 27,-12 h 3 v -22 h -3 z"
       fill="currentColor"
       class="ColorScheme-ButtonText"
       style="opacity:0.1" />
  </g>
  <g
     id="toolbutton-hover-top"
     transform="matrix(-1,0,0,-2,148,-5)"
     fill-rule="evenodd">
    <path
       id="path1565-7-9-8"
       d="m 4,-11 v 3 h 22 v -3 z"
       class="ColorScheme-ButtonText"
       fill="currentColor"
       style="opacity:0.1" />
  </g>
  <g
     id="toolbutton-hover-topleft"
     transform="matrix(-2,0,0,-2,175,-5)"
     fill-rule="evenodd">
    <path
       id="rect1509-7-9-6-2-2-8"
       d="m 27,-8 v -3 h 3 c 0,1.662 -1.338,3 -3,3 z"
       fill="currentColor"
       class="ColorScheme-ButtonText"
       style="opacity:0.1" />
  </g>
  <g
     id="toolbutton-hover-left"
     transform="rotate(180,74,3)"
     fill-rule="evenodd">
    <path
       id="path1565-7-8-1-6"
       d="m 27,-12 h 6 v -22 h -6 z"
       fill="currentColor"
       class="ColorScheme-ButtonText"
       style="opacity:0.1;stroke-width:1.41421" />
  </g>
  <g
     id="toolbutton-hover-topright"
     transform="matrix(2,0,0,-2,91,-5)"
     fill-rule="evenodd">
    <path
       id="rect1509-7-9-6-2-2-83"
       d="m 27,-8 v -3 h 3 c 0,1.662 -1.338,3 -3,3 z"
       class="ColorScheme-ButtonText"
       fill="currentColor"
       style="opacity:0.1" />
  </g>
  <g
     id="toolbutton-hover-bottomleft"
     transform="matrix(-2,0,0,2,175,63)"
     fill-rule="evenodd">
    <path
       id="rect1509-7-9-6-2-2-0"
       d="m 27,-8 v -3 h 3 c 0,1.662 -1.338,3 -3,3 z"
       fill="currentColor"
       class="ColorScheme-ButtonText"
       style="opacity:0.1" />
  </g>
  <path
     id="toolbutton-hover-center"
     d="m 122,18 h 22 v 22 h -22 z"
     fill="currentColor"
     class="ColorScheme-ButtonText"
     style="opacity:0.1" />
  <rect
     id="toolbutton-hover-hint-top-margin"
     x="132"
     y="11"
     width="2"
     height="4"
     fill="#ff00ff"
     fill-rule="evenodd"
     style="stroke-width:0.999996" />
  <rect
     id="toolbutton-hover-hint-bottom-margin"
     x="132"
     y="43"
     width="2"
     height="4"
     fill="#ff00ff"
     fill-rule="evenodd"
     style="stroke-width:0.999996" />
  <rect
     id="toolbutton-hover-hint-right-margin"
     x="147"
     y="28"
     width="4"
     height="2"
     fill="#ff00ff"
     fill-rule="evenodd"
     style="stroke-width:0.999996" />
  <rect
     style="fill:#ff00ff;fill-opacity:1;fill-rule:evenodd;stroke-width:0.999996"
     id="toolbutton-hover-hint-left-margin"
     width="4"
     height="2"
     x="115"
     y="28" />
  <g
     id="toolbutton-focus-bottom"
     transform="translate(-58,-88)"
     fill-rule="evenodd">
    <path
       id="rect829-6-5-2-9-8"
       transform="scale(-1)"
       d="m -202,-170 h 22 v 3 h -22 z"
       fill-opacity="0.001" />
    <path
       id="rect829-6-2-6-6-9-3"
       transform="scale(-1)"
       d="m -202,-170 h 22 v 1 h -22 z"
       class="ColorScheme-ButtonFocus"
       fill="currentColor" />
    <path
       id="path1565-4-90-2-7"
       d="m 180,170 v 1 h 22 v -1 z"
       class="ColorScheme-ButtonFocus"
       fill="currentColor"
       opacity="0.2"
       style="opacity:1" />
  </g>
  <g
     id="toolbutton-focus-top"
     transform="matrix(1,0,0,-1,-58,222)"
     fill-rule="evenodd">
    <path
       id="rect829-6-5-2-9-5-3"
       transform="scale(-1)"
       d="m -202,-170 h 22 v 3 h -22 z"
       fill-opacity="0.001" />
    <path
       id="rect829-6-2-6-6-9-2-7"
       transform="scale(-1)"
       d="m -202,-170 h 22 v 1 h -22 z"
       class="ColorScheme-ButtonFocus"
       fill="currentColor" />
    <path
       id="path1565-4-90-2-0-8"
       d="m 180,170 v 1 h 22 v -1 z"
       class="ColorScheme-ButtonFocus"
       fill="currentColor"
       opacity="0.2"
       style="opacity:1" />
  </g>
  <g
     id="toolbutton-focus-right"
     transform="rotate(-90,118,140)"
     fill-rule="evenodd">
    <path
       id="rect829-6-5-2-9-0-4"
       transform="scale(-1)"
       d="m -202,-170 h 22 v 3 h -22 z"
       fill-opacity="0.001" />
    <path
       id="rect829-6-2-6-6-9-9-1"
       transform="scale(-1)"
       d="m -202,-170 h 22 v 1 h -22 z"
       class="ColorScheme-ButtonFocus"
       fill="currentColor" />
    <path
       id="path1565-4-90-2-9-9"
       d="m 180,170 v 1 h 22 v -1 z"
       class="ColorScheme-ButtonFocus"
       fill="currentColor"
       opacity="0.2"
       style="opacity:1" />
  </g>
  <g
     id="toolbutton-focus-left"
     transform="matrix(0,-1,-1,0,288,258)"
     fill-rule="evenodd">
    <path
       id="rect829-6-5-2-9-0-1-9"
       transform="scale(-1)"
       d="m -202,-170 h 22 v 3 h -22 z"
       fill-opacity="0.001" />
    <path
       id="rect829-6-2-6-6-9-9-0-8"
       transform="scale(-1)"
       d="m -202,-170 h 22 v 1 h -22 z"
       class="ColorScheme-ButtonFocus"
       fill="currentColor" />
    <path
       id="path1565-4-90-2-9-3-8"
       d="m 180,170 v 1 h 22 v -1 z"
       class="ColorScheme-ButtonFocus"
       fill="currentColor"
       opacity="0.2"
       style="opacity:1" />
  </g>
  <g
     id="toolbutton-focus-bottomleft"
     fill-rule="evenodd"
     transform="translate(-120,-88)">
    <path
       id="rect2974"
       d="m 237,167 c 0,2.216 1.784,4 4,4 v -1 c -1.662,0 -3,-1.338 -3,-3 z"
       class="ColorScheme-ButtonFocus"
       fill="currentColor"
       opacity="0.2"
       style="opacity:1" />
    <path
       id="rect1509-7-9-6-2-2-0-8"
       d="m 241,170 v -3 h -3 c 0,1.662 1.338,3 3,3 z"
       fill-opacity="0.001" />
    <path
       id="path1561-6-4-7"
       d="m 239,167 c 0,1.108 0.892,2 2,2 v 1 c -1.662,0 -3,-1.338 -3,-3 z"
       class="ColorScheme-ButtonFocus"
       fill="currentColor" />
  </g>
  <g
     id="toolbutton-focus-topleft"
     transform="matrix(1,0,0,-1,-120,222)"
     fill-rule="evenodd">
    <path
       id="rect2974-6"
       d="m 237,167 c 0,2.216 1.784,4 4,4 v -1 c -1.662,0 -3,-1.338 -3,-3 z"
       class="ColorScheme-ButtonFocus"
       fill="currentColor"
       opacity="0.2"
       style="opacity:1" />
    <path
       id="rect1509-7-9-6-2-2-0-8-7"
       d="m 241,170 v -3 h -3 c 0,1.662 1.338,3 3,3 z"
       fill-opacity="0.001" />
    <path
       id="path1561-6-4-7-6"
       d="m 239,167 c 0,1.108 0.892,2 2,2 v 1 c -1.662,0 -3,-1.338 -3,-3 z"
       class="ColorScheme-ButtonFocus"
       fill="currentColor" />
  </g>
  <g
     id="toolbutton-focus-topright"
     transform="rotate(180,193,111)"
     fill-rule="evenodd">
    <path
       id="rect2974-9"
       d="m 237,167 c 0,2.216 1.784,4 4,4 v -1 c -1.662,0 -3,-1.338 -3,-3 z"
       class="ColorScheme-ButtonFocus"
       fill="currentColor"
       opacity="0.2"
       style="opacity:1" />
    <path
       id="rect1509-7-9-6-2-2-0-8-75"
       d="m 241,170 v -3 h -3 c 0,1.662 1.338,3 3,3 z"
       fill-opacity="0.001" />
    <path
       id="path1561-6-4-7-9"
       d="m 239,167 c 0,1.108 0.892,2 2,2 v 1 c -1.662,0 -3,-1.338 -3,-3 z"
       class="ColorScheme-ButtonFocus"
       fill="currentColor" />
  </g>
  <g
     id="toolbutton-focus-bottomright"
     transform="matrix(-1,0,0,1,386,-88)"
     fill-rule="evenodd">
    <path
       id="rect2974-8"
       d="m 237,167 c 0,2.216 1.784,4 4,4 v -1 c -1.662,0 -3,-1.338 -3,-3 z"
       class="ColorScheme-ButtonFocus"
       fill="currentColor"
       opacity="0.2"
       style="opacity:1" />
    <path
       id="rect1509-7-9-6-2-2-0-8-5"
       d="m 241,170 v -3 h -3 c 0,1.662 1.338,3 3,3 z"
       fill-opacity="0.001" />
    <path
       id="path1561-6-4-7-3"
       d="m 239,167 c 0,1.108 0.892,2 2,2 v 1 c -1.662,0 -3,-1.338 -3,-3 z"
       class="ColorScheme-ButtonFocus"
       fill="currentColor" />
  </g>
  <path
     id="toolbutton-focus-hint-top-margin"
     d="m 132,51 h 2 v 1 h -2 z"
     fill="#ff00ff"
     fill-rule="evenodd" />
  <path
     id="toolbutton-focus-hint-bottom-margin"
     d="m 132,82 h 2 v 1 h -2 z"
     fill="#ff00ff"
     fill-rule="evenodd" />
  <path
     id="toolbutton-focus-hint-left-margin"
     d="m 117,66 h 1 v 2 h -1 z"
     fill="#ff00ff"
     fill-rule="evenodd" />
  <path
     id="toolbutton-focus-hint-right-margin"
     d="m 148,66 h 1 v 2 h -1 z"
     fill="#ff00ff"
     fill-rule="evenodd" />
  <path
     fill-opacity="0.001"
     d="m 122,56 h 22 v 22 h -22 z"
     id="toolbutton-focus-center" />
  <path
     id="toolbutton-pressed-top"
     d="m 122,87 v 6 h 22 v -6 z"
     class="ColorScheme-ButtonText"
     fill="currentColor"
     style="opacity:0.2" />
  <path
     id="toolbutton-pressed-topleft"
     d="m 121,87 c -3.324,0 -6,2.676 -6,6 h 6 v -4 z"
     class="ColorScheme-ButtonText"
     fill="currentColor"
     style="opacity:0.2" />
  <path
     id="toolbutton-pressed-center"
     d="m 122,94 h 22 v 22 h -22 z"
     fill="currentColor"
     class="ColorScheme-ButtonText"
     style="opacity:0.2" />
  <path
     id="toolbutton-pressed-bottom"
     d="m 144,123 v -6 h -22 v 6 z"
     class="ColorScheme-ButtonText"
     fill="currentColor"
     style="opacity:0.2" />
  <path
     id="toolbutton-pressed-bottomright"
     d="m 145,123 c 3.324,0 6,-2.676 6,-6 h -6 v 4 z"
     class="ColorScheme-ButtonText"
     fill="currentColor"
     style="opacity:0.2" />
  <path
     id="toolbutton-pressed-right"
     d="m 151,94 h -6 v 22 h 6 z"
     class="ColorScheme-ButtonText"
     fill="currentColor"
     style="opacity:0.2" />
  <path
     id="toolbutton-pressed-topright"
     d="m 151,93 c 0,-3.324 -2.676,-6 -6,-6 v 6 h 4 z"
     class="ColorScheme-ButtonText"
     fill="currentColor"
     style="opacity:0.2" />
  <path
     id="toolbutton-pressed-left"
     d="m 115,116 h 6 V 94 h -6 z"
     class="ColorScheme-ButtonText"
     fill="currentColor"
     style="opacity:0.2" />
  <path
     id="toolbutton-pressed-bottomleft"
     d="m 115,117 c 0,3.324 2.676,6 6,6 v -6 h -4 z"
     class="ColorScheme-ButtonText"
     fill="currentColor"
     style="opacity:0.2" />
  <path
     style="stroke-width:0.999996"
     id="toolbutton-pressed-hint-top-margin"
     d="m 132,87 h 2 v 4 h -2 z"
     fill="#ff00ff"
     fill-rule="evenodd" />
  <path
     style="stroke-width:0.999996"
     id="toolbutton-pressed-hint-bottom-margin"
     d="m 132,119 h 2 v 4 h -2 z"
     fill="#ff00ff"
     fill-rule="evenodd" />
  <path
     style="stroke-width:0.999996"
     id="toolbutton-pressed-hint-left-margin"
     d="m 115,104 h 4 v 2 h -4 z"
     fill="#ff00ff"
     fill-rule="evenodd" />
  <path
     style="stroke-width:0.999996"
     id="toolbutton-pressed-hint-right-margin"
     d="m 147,104 h 4 v 2 h -4 z"
     fill="#ff00ff"
     fill-rule="evenodd" />
</svg>
