<?xml version="1.0" encoding="UTF-8" standalone="no"?>
<svg
   width="64"
   height="32"
   version="1.1"
   viewBox="0 0 64 32"
   id="svg15"
   sodipodi:docname="checkmarks.svg"
   inkscape:version="1.1.1 (3bf5ae0d25, 2021-09-20, custom)"
   xmlns:inkscape="http://www.inkscape.org/namespaces/inkscape"
   xmlns:sodipodi="http://sodipodi.sourceforge.net/DTD/sodipodi-0.dtd"
   xmlns="http://www.w3.org/2000/svg"
   xmlns:svg="http://www.w3.org/2000/svg">
  <sodipodi:namedview
     id="namedview17"
     pagecolor="#ffffff"
     bordercolor="#666666"
     borderopacity="1.0"
     inkscape:pageshadow="2"
     inkscape:pageopacity="0.0"
     inkscape:pagecheckerboard="0"
     showgrid="true"
     inkscape:zoom="9.4469466"
     inkscape:cx="30.697749"
     inkscape:cy="10.955921"
     inkscape:window-width="1920"
     inkscape:window-height="1001"
     inkscape:window-x="0"
     inkscape:window-y="0"
     inkscape:window-maximized="1"
     inkscape:current-layer="svg15">
    <inkscape:grid
       type="xygrid"
       id="grid827" />
  </sodipodi:namedview>
  <defs
     id="defs8">
    <style
       id="current-color-scheme"
       type="text/css">.ColorScheme-Text {
        color:#31363b;
        stop-color:#31363b;
      }
      .ColorScheme-Background {
        color:#eff0f1;
        stop-color:#eff0f1;
      }
      .ColorScheme-Highlight {
        color:#3281ea;
        stop-color:#3281ea;
      }
      .ColorScheme-ViewText {
        color:#31363b;
        stop-color:#31363b;
      }
      .ColorScheme-ViewBackground {
        color:#fcfcfc;
        stop-color:#fcfcfc;
      }
      .ColorScheme-ViewHover {
        color:#93cee9;
        stop-color:#93cee9;
      }
      .ColorScheme-ViewFocus{
        color:#3281ea;
        stop-color:#3281ea;
      }
      .ColorScheme-ButtonText {
        color:#31363b;
        stop-color:#31363b;
      }
      .ColorScheme-ButtonBackground {
        color:#eff0f1;
        stop-color:#eff0f1;
      }
      .ColorScheme-ButtonHover {
        color:#93cee9;
        stop-color:#93cee9;
      }
      .ColorScheme-ButtonFocus{
        color:#3281ea;
        stop-color:#3281ea;
      }</style>
  </defs>
  <g
     id="radiobutton"
     transform="matrix(1.6,0,0,1.6,0,-36.8)">
    <path
       d="M 10,23 C 4.48,23 0,27.48 0,33 0,38.52 4.48,43 10,43 15.52,43 20,38.52 20,33 20,27.48 15.52,23 10,23 Z"
       id="path828"
       style="fill:none" />
    <path
       d="m 10,23.625 c -5.175,0 -9.375,4.2 -9.375,9.375 0,5.175 4.2,9.375 9.375,9.375 5.175,0 9.375,-4.2 9.375,-9.375 0,-5.175 -4.2,-9.375 -9.375,-9.375 z"
       id="path4"
       class="ColorScheme-Highlight"
       fill="currentColor"
       style="stroke-width:0.9375" />
    <path
       d="m 10,29.875 c 1.725,0 3.125,1.4 3.125,3.125 0,1.725 -1.4,3.125 -3.125,3.125 -1.725,0 -3.125,-1.4 -3.125,-3.125 0,-1.725 1.4,-3.125 3.125,-3.125 z"
       id="path994"
       class="ColorScheme-Background"
       fill="currentColor"
       style="stroke-width:1.04167" />
  </g>
  <g
     id="checkbox"
     transform="matrix(1.6,0,0,1.6,-43.2,0)">
    <path
       d="M 57,0 C 51.48,0 47,4.48 47,10 47,15.52 51.48,20 57,20 62.52,20 67,15.52 67,10 67,4.48 62.52,0 57,0 Z"
       id="path866"
       style="fill:none" />
    <path
       d="m 57,0.625 c -5.175,0 -9.375,4.2 -9.375,9.375 0,5.175 4.2,9.375 9.375,9.375 5.175,0 9.375,-4.2 9.375,-9.375 0,-5.175 -4.2,-9.375 -9.375,-9.375 z"
       id="path12"
       class="ColorScheme-Highlight"
       fill="currentColor"
       style="stroke-width:0.9375" />
    <path
       d="M 61.642132,5.4633702 62.813253,6.6425471 55.33907,14.11673 51.186747,9.9644061 52.357868,8.7932847 55.33907,11.766432 Z"
       id="path1133"
       class="ColorScheme-Background"
       fill="currentColor"
       style="stroke-width:0.830465" />
  </g>
</svg>
